<svg width="68" height="68" viewBox="0 0 68 68" fill="none" xmlns="http://www.w3.org/2000/svg">
<path d="M19.8333 62.3332C18.2749 62.3332 16.9414 61.7788 15.8326 60.67C14.7219 59.5593 14.1666 58.2248 14.1666 56.6665C14.1666 55.1082 14.7219 53.7737 15.8326 52.663C16.9414 51.5542 18.2749 50.9998 19.8333 50.9998C21.3916 50.9998 22.7251 51.5542 23.8339 52.663C24.9446 53.7737 25.4999 55.1082 25.4999 56.6665C25.4999 58.2248 24.9446 59.5593 23.8339 60.67C22.7251 61.7788 21.3916 62.3332 19.8333 62.3332ZM48.1666 62.3332C46.6083 62.3332 45.2747 61.7788 44.1659 60.67C43.0553 59.5593 42.4999 58.2248 42.4999 56.6665C42.4999 55.1082 43.0553 53.7737 44.1659 52.663C45.2747 51.5542 46.6083 50.9998 48.1666 50.9998C49.7249 50.9998 51.0594 51.5542 52.1701 52.663C53.2789 53.7737 53.8333 55.1082 53.8333 56.6665C53.8333 58.2248 53.2789 59.5593 52.1701 60.67C51.0594 61.7788 49.7249 62.3332 48.1666 62.3332ZM17.4249 16.9998L24.2249 31.1665H44.0583L51.8499 16.9998H17.4249ZM14.7333 11.3332H56.5249C57.611 11.3332 58.4374 11.8167 59.0041 12.7838C59.5708 13.7528 59.5944 14.7332 59.0749 15.7248L49.0166 33.8582C48.4971 34.8026 47.8001 35.5346 46.9256 36.054C46.0529 36.5735 45.0971 36.8332 44.0583 36.8332H22.9499L19.8333 42.4998H53.8333V48.1665H19.8333C17.7083 48.1665 16.1027 47.2334 15.0166 45.3672C13.9305 43.5028 13.8833 41.6498 14.8749 39.8082L18.6999 32.8665L8.49992 11.3332H2.83325V5.6665H12.0416L14.7333 11.3332Z" fill="#555C79"/>
</svg>
