<svg width="68" height="68" viewBox="0 0 68 68" fill="none" xmlns="http://www.w3.org/2000/svg">
<path d="M22.6667 68C21.8639 68 21.1905 67.728 20.6465 67.184C20.1044 66.6419 19.8333 65.9694 19.8333 65.1667C19.8333 64.3639 20.1044 63.6914 20.6465 63.1493C21.1905 62.6053 21.8639 62.3333 22.6667 62.3333C23.4694 62.3333 24.1428 62.6053 24.6868 63.1493C25.2289 63.6914 25.5 64.3639 25.5 65.1667C25.5 65.9694 25.2289 66.6419 24.6868 67.184C24.1428 67.728 23.4694 68 22.6667 68ZM34 68C33.1972 68 32.5248 67.728 31.9827 67.184C31.4387 66.6419 31.1667 65.9694 31.1667 65.1667C31.1667 64.3639 31.4387 63.6914 31.9827 63.1493C32.5248 62.6053 33.1972 62.3333 34 62.3333C34.8028 62.3333 35.4762 62.6053 36.0202 63.1493C36.5623 63.6914 36.8333 64.3639 36.8333 65.1667C36.8333 65.9694 36.5623 66.6419 36.0202 67.184C35.4762 67.728 34.8028 68 34 68ZM45.3333 68C44.5306 68 43.8581 67.728 43.316 67.184C42.772 66.6419 42.5 65.9694 42.5 65.1667C42.5 64.3639 42.772 63.6914 43.316 63.1493C43.8581 62.6053 44.5306 62.3333 45.3333 62.3333C46.1361 62.3333 46.8086 62.6053 47.3507 63.1493C47.8947 63.6914 48.1667 64.3639 48.1667 65.1667C48.1667 65.9694 47.8947 66.6419 47.3507 67.184C46.8086 67.728 46.1361 68 45.3333 68ZM22.6667 56.6667C21.1083 56.6667 19.7748 56.1123 18.666 55.0035C17.5553 53.8928 17 52.5583 17 51V5.66667C17 4.10833 17.5553 2.77383 18.666 1.66317C19.7748 0.554389 21.1083 0 22.6667 0H45.3333C46.8917 0 48.2262 0.554389 49.3368 1.66317C50.4456 2.77383 51 4.10833 51 5.66667V51C51 52.5583 50.4456 53.8928 49.3368 55.0035C48.2262 56.1123 46.8917 56.6667 45.3333 56.6667H22.6667ZM22.6667 42.5H45.3333V14.1667H22.6667V42.5Z" fill="#555C79"/>
</svg>
