<svg width="68" height="68" viewBox="0 0 68 68" fill="none" xmlns="http://www.w3.org/2000/svg">
<path d="M41.9334 22.6668L45.3334 26.0668L26.0667 45.3335L22.6667 41.9335L41.9334 22.6668ZM11.3334 11.3335H56.6668C59.8118 11.3335 62.3334 13.8552 62.3334 17.0002V28.3335C60.8305 28.3335 59.3892 28.9305 58.3265 29.9932C57.2638 31.0559 56.6668 32.4973 56.6668 34.0002C56.6668 35.5031 57.2638 36.9444 58.3265 38.0071C59.3892 39.0698 60.8305 39.6668 62.3334 39.6668V51.0002C62.3334 54.1452 59.8118 56.6668 56.6668 56.6668H11.3334C9.83052 56.6668 8.38918 56.0698 7.32648 55.0071C6.26377 53.9444 5.66675 52.5031 5.66675 51.0002V39.6668C8.81175 39.6668 11.3334 37.1452 11.3334 34.0002C11.3334 32.4973 10.7364 31.0559 9.67369 29.9932C8.61098 28.9305 7.16964 28.3335 5.66675 28.3335V17.0002C5.66675 15.4973 6.26377 14.0559 7.32648 12.9932C8.38918 11.9305 9.83052 11.3335 11.3334 11.3335ZM11.3334 17.0002V24.1968C13.0552 25.1896 14.4851 26.6184 15.4793 28.3393C16.4735 30.0602 16.997 32.0127 16.997 34.0002C16.997 35.9876 16.4735 37.9401 15.4793 39.661C14.4851 41.382 13.0552 42.8107 11.3334 43.8035V51.0002H56.6668V43.8035C54.945 42.8107 53.5151 41.382 52.5209 39.661C51.5266 37.9401 51.0032 35.9876 51.0032 34.0002C51.0032 32.0127 51.5266 30.0602 52.5209 28.3393C53.5151 26.6184 54.945 25.1896 56.6668 24.1968V17.0002H11.3334ZM26.9167 22.6668C29.2684 22.6668 31.1667 24.5652 31.1667 26.9168C31.1667 29.2685 29.2684 31.1668 26.9167 31.1668C24.5651 31.1668 22.6667 29.2685 22.6667 26.9168C22.6667 24.5652 24.5651 22.6668 26.9167 22.6668ZM41.0834 36.8335C43.4351 36.8335 45.3334 38.7318 45.3334 41.0835C45.3334 43.4352 43.4351 45.3335 41.0834 45.3335C38.7317 45.3335 36.8334 43.4352 36.8334 41.0835C36.8334 38.7318 38.7317 36.8335 41.0834 36.8335Z" fill="#555C79"/>
</svg>
