<svg width="68" height="68" viewBox="0 0 68 68" fill="none" xmlns="http://www.w3.org/2000/svg">
<path d="M34 43.9165C31.37 43.9165 28.8476 42.8717 26.9879 41.012C25.1282 39.1522 24.0834 36.6299 24.0834 33.9998C24.0834 31.3698 25.1282 28.8474 26.9879 26.9877C28.8476 25.128 31.37 24.0832 34 24.0832C36.6301 24.0832 39.1524 25.128 41.0122 26.9877C42.8719 28.8474 43.9167 31.3698 43.9167 33.9998C43.9167 36.6299 42.8719 39.1522 41.0122 41.012C39.1524 42.8717 36.6301 43.9165 34 43.9165ZM55.0517 36.7482C55.165 35.8415 55.25 34.9348 55.25 33.9998C55.25 33.0648 55.165 32.1298 55.0517 31.1665L61.03 26.5482C61.5684 26.1232 61.71 25.3582 61.37 24.7348L55.7034 14.9315C55.3634 14.3082 54.5984 14.0532 53.975 14.3082L46.92 17.1415C45.4467 16.0365 43.9167 15.0732 42.1317 14.3648L41.0834 6.85651C41.0258 6.52279 40.852 6.22022 40.5927 6.0024C40.3334 5.78459 40.0053 5.6656 39.6667 5.66651H28.3334C27.625 5.66651 27.03 6.17651 26.9167 6.85651L25.8684 14.3648C24.0834 15.0732 22.5534 16.0365 21.08 17.1415L14.025 14.3082C13.4017 14.0532 12.6367 14.3082 12.2967 14.9315L6.63003 24.7348C6.2617 25.3582 6.4317 26.1232 6.97003 26.5482L12.9484 31.1665C12.835 32.1298 12.75 33.0648 12.75 33.9998C12.75 34.9348 12.835 35.8415 12.9484 36.7482L6.97003 41.4515C6.4317 41.8765 6.2617 42.6415 6.63003 43.2648L12.2967 53.0682C12.6367 53.6915 13.4017 53.9182 14.025 53.6915L21.08 50.8298C22.5534 51.9632 24.0834 52.9265 25.8684 53.6348L26.9167 61.1432C27.03 61.8232 27.625 62.3332 28.3334 62.3332H39.6667C40.375 62.3332 40.97 61.8232 41.0834 61.1432L42.1317 53.6348C43.9167 52.8982 45.4467 51.9632 46.92 50.8298L53.975 53.6915C54.5984 53.9182 55.3634 53.6915 55.7034 53.0682L61.37 43.2648C61.71 42.6415 61.5684 41.8765 61.03 41.4515L55.0517 36.7482Z" fill="#555C79"/>
</svg>
