<svg width="68" height="68" viewBox="0 0 68 68" fill="none" xmlns="http://www.w3.org/2000/svg">
<path d="M27.6958 33.9999C25.9958 33.9999 24.5791 33.3624 23.4458 32.0874C22.3124 30.8124 21.8638 29.3249 22.0999 27.6249L23.0208 20.6833C23.3985 17.9916 24.6263 15.7608 26.7041 13.9909C28.7819 12.2191 31.2138 11.3333 33.9999 11.3333C36.786 11.3333 39.218 12.2191 41.2958 13.9909C43.3735 15.7608 44.6013 17.9916 44.9791 20.6833L45.8999 27.6249C46.136 29.3249 45.6874 30.8124 44.5541 32.0874C43.4208 33.3624 42.0041 33.9999 40.3041 33.9999H27.6958ZM16.9999 56.6666C15.4416 56.6666 14.108 56.1122 12.9993 55.0034C11.8886 53.8928 11.3333 52.5583 11.3333 50.9999V48.7333C11.3333 47.1277 11.7469 45.6515 12.5743 44.3048C13.3997 42.9599 14.4971 41.9333 15.8666 41.2249C18.7944 39.761 21.7694 38.6626 24.7916 37.9298C27.8138 37.1988 30.8833 36.8333 33.9999 36.8333C37.1166 36.8333 40.186 37.1988 43.2083 37.9298C46.2305 38.6626 49.2055 39.761 52.1332 41.2249C53.5027 41.9333 54.6001 42.9599 55.4256 44.3048C56.2529 45.6515 56.6666 47.1277 56.6666 48.7333V50.9999C56.6666 52.5583 56.1122 53.8928 55.0034 55.0034C53.8928 56.1122 52.5583 56.6666 50.9999 56.6666H16.9999Z" fill="#555C79"/>
</svg>
