<svg width="68" height="68" viewBox="0 0 68 68" fill="none" xmlns="http://www.w3.org/2000/svg">
<g clip-path="url(#clip0_273_1017)">
<path d="M15.1112 35.8889V20.7778H9.4445C7.94161 20.7778 6.50027 21.3749 5.43756 22.4376C4.37485 23.5003 3.77783 24.9416 3.77783 26.4445V60.4445C3.78064 60.7953 3.88109 61.1384 4.06792 61.4353C4.25475 61.7322 4.52058 61.9713 4.83561 62.1256C5.13911 62.2636 5.47375 62.3189 5.80551 62.2857C6.13727 62.2525 6.45434 62.1321 6.7245 61.9367L16.4523 54.7778H41.8389C42.5548 54.799 43.2675 54.673 43.9327 54.4075C44.5979 54.1421 45.2015 53.7429 45.7062 53.2347C46.2109 52.7265 46.6058 52.1201 46.8666 51.453C47.1274 50.7859 47.2484 50.0725 47.2223 49.3567V47.2223H26.4445C23.4387 47.2223 20.556 46.0282 18.4306 43.9028C16.3052 41.7774 15.1112 38.8947 15.1112 35.8889Z" fill="#555C79"/>
<path d="M58.5556 7.55566H26.4445C24.9416 7.55566 23.5003 8.15269 22.4376 9.21539C21.3749 10.2781 20.7778 11.7194 20.7778 13.2223V35.889C20.7778 37.3919 21.3749 38.8332 22.4376 39.8959C23.5003 40.9586 24.9416 41.5557 26.4445 41.5557H52.0389L61.0678 48.5634C61.3362 48.7619 61.6524 48.8857 61.9842 48.9222C62.316 48.9587 62.6516 48.9066 62.9567 48.7712C63.2782 48.6181 63.5498 48.3773 63.7403 48.0765C63.9308 47.7757 64.0324 47.4272 64.0334 47.0712V13.2223C64.0342 11.7516 63.4632 10.3382 62.441 9.28072C61.4188 8.22328 60.0255 7.60469 58.5556 7.55566Z" fill="#555C79"/>
</g>
<defs>
<clipPath id="clip0_273_1017">
<rect width="68" height="68" fill="white"/>
</clipPath>
</defs>
</svg>
