<svg width="36" height="36" viewBox="0 0 36 36" fill="none" xmlns="http://www.w3.org/2000/svg">
<path opacity="0.3" d="M27 29.9999H9V11.9999H12V14.9999C12 15.8249 12.675 16.4999 13.5 16.4999C14.325 16.4999 15 15.8249 15 14.9999V11.9999H21V14.9999C21 15.8249 21.675 16.4999 22.5 16.4999C23.325 16.4999 24 15.8249 24 14.9999V11.9999H27V29.9999Z" fill="#BDBDBD"/>
<path d="M27 8.99991H24C24 5.68491 21.315 2.99991 18 2.99991C14.685 2.99991 12 5.68491 12 8.99991H9C7.35 8.99991 6 10.3499 6 11.9999V29.9999C6 31.6499 7.35 32.9999 9 32.9999H27C28.65 32.9999 30 31.6499 30 29.9999V11.9999C30 10.3499 28.65 8.99991 27 8.99991ZM18 5.99991C19.65 5.99991 21 7.34991 21 8.99991H15C15 7.34991 16.35 5.99991 18 5.99991ZM27 29.9999H9V11.9999H12V14.9999C12 15.8249 12.675 16.4999 13.5 16.4999C14.325 16.4999 15 15.8249 15 14.9999V11.9999H21V14.9999C21 15.8249 21.675 16.4999 22.5 16.4999C23.325 16.4999 24 15.8249 24 14.9999V11.9999H27V29.9999Z" fill="black"/>
</svg>
