<svg width="33" height="34" viewBox="0 0 33 34" fill="none" xmlns="http://www.w3.org/2000/svg">
<path d="M16.6116 26.0652L16.4749 26.2043L16.3244 26.0652C9.82749 20.0669 5.53269 16.1005 5.53269 12.0785C5.53269 9.29506 7.58435 7.20749 10.3199 7.20749C12.4263 7.20749 14.4779 8.5992 15.2028 10.4919H17.7469C18.4718 8.5992 20.5235 7.20749 22.6298 7.20749C25.3654 7.20749 27.417 9.29506 27.417 12.0785C27.417 16.1005 23.1222 20.0669 16.6116 26.0652ZM22.6298 4.42407C20.2499 4.42407 17.9657 5.55136 16.4749 7.31883C14.984 5.55136 12.6998 4.42407 10.3199 4.42407C6.10715 4.42407 2.79715 7.77809 2.79715 12.0785C2.79715 17.3252 7.44757 21.6256 14.4916 28.1249L16.4749 29.962L18.4581 28.1249C25.5021 21.6256 30.1526 17.3252 30.1526 12.0785C30.1526 7.77809 26.8426 4.42407 22.6298 4.42407Z" fill="black"/>
</svg>
