<svg width="33" height="34" viewBox="0 0 33 34" fill="none" xmlns="http://www.w3.org/2000/svg">
<path d="M15.8981 26.1009L15.7606 26.2425L15.6093 26.1009C9.07806 19.995 4.76056 15.9575 4.76056 11.8634C4.76056 9.03005 6.82306 6.90505 9.57306 6.90505C11.6906 6.90505 13.7531 8.32172 14.4818 10.2484H17.0393C17.7681 8.32172 19.8306 6.90505 21.9481 6.90505C24.6981 6.90505 26.7606 9.03005 26.7606 11.8634C26.7606 15.9575 22.4431 19.995 15.8981 26.1009ZM21.9481 4.07172C19.5556 4.07172 17.2593 5.21922 15.7606 7.01838C14.2618 5.21922 11.9656 4.07172 9.57306 4.07172C5.33806 4.07172 2.01056 7.48588 2.01056 11.8634C2.01056 17.2042 6.68556 21.5817 13.7668 28.1975L15.7606 30.0675L17.7543 28.1975C24.8356 21.5817 29.5106 17.2042 29.5106 11.8634C29.5106 7.48588 26.1831 4.07172 21.9481 4.07172Z" fill="black"/>
<path d="M15.8981 26.1009L15.7606 26.2425L15.6093 26.1009C9.07806 19.995 4.76056 15.9575 4.76056 11.8634C4.76056 9.03005 6.82306 6.90505 9.57306 6.90505C11.6906 6.90505 13.7531 8.32172 14.4818 10.2484H17.0393C17.7681 8.32172 19.8306 6.90505 21.9481 6.90505C24.6981 6.90505 26.7606 9.03005 26.7606 11.8634C26.7606 15.9575 22.4431 19.995 15.8981 26.1009ZM21.9481 4.07172C19.5556 4.07172 17.2593 5.21922 15.7606 7.01838C14.2618 5.21922 11.9656 4.07172 9.57306 4.07172C5.33806 4.07172 2.01056 7.48588 2.01056 11.8634C2.01056 17.2042 6.68556 21.5817 13.7668 28.1975L15.7606 30.0675L17.7543 28.1975C24.8356 21.5817 29.5106 17.2042 29.5106 11.8634C29.5106 7.48588 26.1831 4.07172 21.9481 4.07172Z" fill="black" fill-opacity="0.2"/>
<path d="M15.8981 26.1009L15.7606 26.2425L15.6093 26.1009C9.07806 19.995 4.76056 15.9575 4.76056 11.8634C4.76056 9.03005 6.82306 6.90505 9.57306 6.90505C11.6906 6.90505 13.7531 8.32172 14.4818 10.2484H17.0393C17.7681 8.32172 19.8306 6.90505 21.9481 6.90505C24.6981 6.90505 26.7606 9.03005 26.7606 11.8634C26.7606 15.9575 22.4431 19.995 15.8981 26.1009ZM21.9481 4.07172C19.5556 4.07172 17.2593 5.21922 15.7606 7.01838C14.2618 5.21922 11.9656 4.07172 9.57306 4.07172C5.33806 4.07172 2.01056 7.48588 2.01056 11.8634C2.01056 17.2042 6.68556 21.5817 13.7668 28.1975L15.7606 30.0675L17.7543 28.1975C24.8356 21.5817 29.5106 17.2042 29.5106 11.8634C29.5106 7.48588 26.1831 4.07172 21.9481 4.07172Z" fill="black" fill-opacity="0.2"/>
<path d="M15.8981 26.1009L15.7606 26.2425L15.6093 26.1009C9.07806 19.995 4.76056 15.9575 4.76056 11.8634C4.76056 9.03005 6.82306 6.90505 9.57306 6.90505C11.6906 6.90505 13.7531 8.32172 14.4818 10.2484H17.0393C17.7681 8.32172 19.8306 6.90505 21.9481 6.90505C24.6981 6.90505 26.7606 9.03005 26.7606 11.8634C26.7606 15.9575 22.4431 19.995 15.8981 26.1009Z" fill="#FF5757"/>
<path d="M15.8981 26.1009L15.7606 26.2425L15.6093 26.1009C9.07806 19.995 4.76056 15.9575 4.76056 11.8634C4.76056 9.03005 6.82306 6.90505 9.57306 6.90505C11.6906 6.90505 13.7531 8.32172 14.4818 10.2484H17.0393C17.7681 8.32172 19.8306 6.90505 21.9481 6.90505C24.6981 6.90505 26.7606 9.03005 26.7606 11.8634C26.7606 15.9575 22.4431 19.995 15.8981 26.1009Z" fill="black" fill-opacity="0.2"/>
<path d="M15.8981 26.1009L15.7606 26.2425L15.6093 26.1009C9.07806 19.995 4.76056 15.9575 4.76056 11.8634C4.76056 9.03005 6.82306 6.90505 9.57306 6.90505C11.6906 6.90505 13.7531 8.32172 14.4818 10.2484H17.0393C17.7681 8.32172 19.8306 6.90505 21.9481 6.90505C24.6981 6.90505 26.7606 9.03005 26.7606 11.8634C26.7606 15.9575 22.4431 19.995 15.8981 26.1009Z" fill="black" fill-opacity="0.2"/>
</svg>
