<svg width="389" height="443" viewBox="0 0 389 443" fill="none" xmlns="http://www.w3.org/2000/svg">
<path d="M238.897 28.6129C220.986 44.2353 194.12 67.5429 179.236 80.5196C164.352 93.3702 143.035 112.016 131.81 121.843L111.376 139.733L109.106 148.931C107.592 154.978 102.042 167.829 93.0866 185.845L79.2119 213.562L88.9242 204.113C96.7444 196.554 98.5103 195.294 98.0058 197.814C97.6274 199.577 95.8615 207.515 93.9695 215.578L90.69 230.318L72.7791 234.854C62.9406 237.499 46.0387 241.909 35.3174 244.933L15.7667 250.35L7.94641 262.697L0 275.044V287.39V299.611L4.91921 303.517C8.45095 306.288 11.2259 307.422 14.5054 307.422H19.1723L16.6496 303.265C14.3792 299.737 14.2531 298.729 15.7667 295.327C17.2803 291.8 18.92 290.918 35.9481 284.871C60.1657 276.429 66.5985 276.303 92.2036 283.359C101.916 286.13 110.871 289.154 112.007 290.036C114.782 292.178 145.18 317.501 147.45 319.517C150.477 322.289 145.558 333.376 138.873 338.415C135.846 340.809 132.692 342.699 131.936 342.699C130.927 342.699 130.927 342.447 131.936 341.691C133.575 340.683 127.521 323.801 125.503 323.801C124.872 323.801 120.079 325.69 115.16 327.832C107.718 331.234 105.952 332.494 105.952 334.761V337.659L112.259 335.139C119.448 332.242 121.088 332.116 121.088 333.88C121.088 334.635 118.313 336.651 114.782 338.667C109.862 341.313 108.223 343.203 106.457 347.486C105.322 350.51 104.691 353.156 104.943 353.408C105.195 353.785 107.718 351.77 110.367 348.998C118.944 340.179 119.575 341.691 117.304 363.99C116.547 370.542 116.169 375.959 116.421 376.211C116.926 376.715 129.791 360.715 130.674 358.573C131.81 355.675 133.575 355.927 149.09 362.227C156.91 365.376 163.847 367.896 164.604 367.896C166.749 367.896 176.713 344.336 178.101 335.643C179.362 328.084 181.002 325.564 182.263 329.092C182.641 329.974 182.137 341.439 181.128 354.415L179.488 378.101L169.65 387.172C164.226 392.212 159.433 396.369 158.928 396.621C158.55 396.747 156.784 393.219 155.27 388.684C153.631 384.148 151.865 380.495 151.486 380.747C136.476 387.046 131.179 390.196 131.179 392.841C131.179 395.613 131.179 395.613 135.972 393.597C145.432 389.566 146.189 389.44 146.693 390.952C146.946 391.834 144.423 394.101 141.017 395.991C136.224 398.763 134.206 400.905 132.314 405.314C130.927 408.464 130.044 411.236 130.296 411.488C130.548 411.74 132.945 409.724 135.594 406.952C143.666 398.637 144.675 399.645 143.414 414.763C141.9 434.921 142.026 435.173 149.847 425.346C153.505 420.811 157.162 417.031 158.045 417.031C158.802 417.031 163.343 418.543 168.136 420.307C172.803 422.07 176.965 423.456 177.091 423.204C177.344 422.952 180.371 417.283 183.65 410.732L189.831 398.763L190.209 406.448C190.462 412.873 189.831 416.149 185.669 426.984C182.894 433.913 180.749 439.709 181.002 439.709C181.128 439.709 189.453 428.622 199.291 415.015C211.4 398.259 217.58 390.826 218.211 391.96C218.716 392.967 218.085 403.046 216.824 414.511C215.562 425.976 214.301 437.819 214.049 440.843C213.544 445.504 215.941 441.472 229.437 415.141C238.266 398.007 246.087 384.022 246.591 383.896C247.222 383.77 250.123 389.566 253.024 396.873C258.069 409.094 258.448 411.11 258.574 422.07L258.7 434.039L265.763 410.732L272.827 387.424L273.584 366.132L274.34 344.714L285.566 358.951C291.621 366.762 296.918 372.81 297.171 372.558C297.423 372.306 295.783 365.628 293.387 357.565C289.35 343.455 288.846 342.321 276.485 325.438L263.745 307.926L234.735 289.154C218.842 278.823 205.976 270.13 206.228 269.878C206.607 269.374 233.347 271.768 239.654 272.776C241.42 273.028 239.149 271.516 234.735 269.5L226.662 265.595L244.825 259.547L262.988 253.5L247.348 253.374C238.771 253.248 231.96 252.996 232.338 252.618C232.716 252.24 236.627 251.232 241.041 250.35C247.096 249.216 254.79 245.815 272.07 236.24C284.683 229.436 294.9 223.641 294.648 223.389C294.522 223.263 288.467 224.145 281.278 225.531C274.088 226.917 268.034 227.798 267.782 227.546C267.529 227.42 281.026 217.971 297.675 206.633C314.199 195.294 327.695 185.845 327.443 185.593C327.317 185.467 320.379 187.483 312.181 190.254C303.982 193.026 297.045 195.042 296.792 194.79C296.54 194.538 299.441 192.144 303.225 189.498C310.919 183.955 357.336 142.379 356.58 141.623C356.327 141.371 350.399 142.757 343.336 144.899C336.272 146.915 329.839 148.679 329.082 148.679C328.199 148.679 331.227 145.907 335.641 142.505C342.453 137.466 346.867 132.048 363.012 109.119C373.608 94.0002 381.806 81.9054 381.302 82.2834C380.797 82.5353 370.959 88.3308 359.607 95.0081C348.255 101.685 338.795 107.103 338.669 106.851C338.416 106.599 349.768 90.5985 363.895 71.1965C377.896 51.7945 389.248 35.6682 388.996 35.4162C388.617 35.0382 344.345 57.9679 264.25 100.3C248.357 108.741 234.987 115.418 234.735 115.166C234.482 115.04 239.149 109.245 244.951 102.441C250.753 95.638 260.087 84.6771 265.637 78.1258L275.854 66.031L278.629 51.6685C280.016 43.7313 281.278 36.6761 281.278 36.0461C281.278 35.5422 274.34 41.5896 266.016 49.6527C257.565 57.7159 250.501 64.1412 250.123 63.8893C249.744 63.3853 268.034 11.6046 271.313 3.91943C271.944 2.28159 272.322 0.76975 272.07 0.517776C271.818 0.265802 256.934 12.8645 238.897 28.6129ZM188.696 332.872L191.092 335.769L187.939 333.25C186.173 331.864 184.533 330.604 184.281 330.478C184.029 330.226 184.281 330.1 185.038 330.1C185.669 330.1 187.308 331.36 188.696 332.872Z" fill="black"/>
<path d="M293.386 322.023C298.053 328.203 302.342 333.627 302.973 334.257C303.477 335.014 303.982 333.248 303.982 330.347C303.982 325.554 303.477 324.797 295.278 318.112C290.359 314.202 286.071 311.049 285.692 311.049C285.314 311.049 288.719 315.968 293.386 322.023Z" fill="black"/>
<path d="M283.422 398.964C281.53 405.775 278.755 419.902 278.755 422.299C278.755 422.93 280.521 422.425 282.539 421.164L286.323 419.019V405.397C286.323 397.955 286.071 391.775 285.819 391.775C285.567 391.775 284.558 395.054 283.422 398.964Z" fill="black"/>
</svg>
