<svg width="90" height="90" viewBox="0 0 90 90" fill="none" xmlns="http://www.w3.org/2000/svg">
<path d="M51.092 16.8652C48.536 19.0972 44.702 22.4272 42.578 24.2812C40.454 26.1172 37.412 28.7812 35.81 30.1852L32.894 32.7412L32.57 34.0552C32.354 34.9192 31.562 36.7552 30.284 39.3292L28.304 43.2892L29.69 41.9392C30.806 40.8592 31.058 40.6792 30.986 41.0392C30.932 41.2912 30.68 42.4252 30.41 43.5772L29.942 45.6832L27.386 46.3312C25.982 46.7092 23.57 47.3392 22.04 47.7712L19.25 48.5452L18.134 50.3092L17 52.0732V53.8372V55.5832L17.702 56.1412C18.206 56.5372 18.602 56.6992 19.07 56.6992H19.736L19.376 56.1052C19.052 55.6012 19.034 55.4572 19.25 54.9712C19.466 54.4672 19.7 54.3412 22.13 53.4772C25.586 52.2712 26.504 52.2532 30.158 53.2612C31.544 53.6572 32.822 54.0892 32.984 54.2152C33.38 54.5212 37.718 58.1392 38.042 58.4272C38.474 58.8232 37.772 60.4072 36.818 61.1272C36.386 61.4692 35.936 61.7392 35.828 61.7392C35.684 61.7392 35.684 61.7032 35.828 61.5952C36.062 61.4512 35.198 59.0392 34.91 59.0392C34.82 59.0392 34.136 59.3092 33.434 59.6152C32.372 60.1012 32.12 60.2812 32.12 60.6052V61.0192L33.02 60.6592C34.046 60.2452 34.28 60.2272 34.28 60.4792C34.28 60.5872 33.884 60.8752 33.38 61.1632C32.678 61.5412 32.444 61.8112 32.192 62.4232C32.03 62.8552 31.94 63.2332 31.976 63.2692C32.012 63.3232 32.372 63.0352 32.75 62.6392C33.974 61.3792 34.064 61.5952 33.74 64.7812C33.632 65.7172 33.578 66.4912 33.614 66.5272C33.686 66.5992 35.522 64.3132 35.648 64.0072C35.81 63.5932 36.062 63.6292 38.276 64.5292C39.392 64.9792 40.382 65.3392 40.49 65.3392C40.796 65.3392 42.218 61.9732 42.416 60.7312C42.596 59.6512 42.83 59.2912 43.01 59.7952C43.064 59.9212 42.992 61.5592 42.848 63.4132L42.614 66.7972L41.21 68.0932C40.436 68.8132 39.752 69.4072 39.68 69.4432C39.626 69.4612 39.374 68.9572 39.158 68.3092C38.924 67.6612 38.672 67.1392 38.618 67.1752C36.476 68.0752 35.72 68.5252 35.72 68.9032C35.72 69.2992 35.72 69.2992 36.404 69.0112C37.754 68.4352 37.862 68.4172 37.934 68.6332C37.97 68.7592 37.61 69.0832 37.124 69.3532C36.44 69.7492 36.152 70.0552 35.882 70.6852C35.684 71.1352 35.558 71.5312 35.594 71.5672C35.63 71.6032 35.972 71.3152 36.35 70.9192C37.502 69.7312 37.646 69.8752 37.466 72.0352C37.25 74.9152 37.268 74.9512 38.384 73.5472C38.906 72.8992 39.428 72.3592 39.554 72.3592C39.662 72.3592 40.31 72.5752 40.994 72.8272C41.66 73.0792 42.254 73.2772 42.272 73.2412C42.308 73.2052 42.74 72.3952 43.208 71.4592L44.09 69.7492L44.144 70.8472C44.18 71.7652 44.09 72.2332 43.496 73.7812C43.1 74.7712 42.794 75.5992 42.83 75.5992C42.848 75.5992 44.036 74.0152 45.44 72.0712C47.168 69.6772 48.05 68.6152 48.14 68.7772C48.212 68.9212 48.122 70.3612 47.942 71.9992C47.762 73.6372 47.582 75.3292 47.546 75.7612C47.474 76.4272 47.816 75.8512 49.742 72.0892C51.002 69.6412 52.118 67.6432 52.19 67.6252C52.28 67.6072 52.694 68.4352 53.108 69.4792C53.828 71.2252 53.882 71.5132 53.9 73.0792L53.918 74.7892L54.926 71.4592L55.934 68.1292L56.042 65.0872L56.15 62.0272L57.752 64.0612C58.616 65.1772 59.372 66.0412 59.408 66.0052C59.444 65.9692 59.21 65.0152 58.868 63.8632C58.292 61.8472 58.22 61.6852 56.456 59.2732L54.638 56.7712L50.498 54.0892C48.23 52.6132 46.394 51.3712 46.43 51.3352C46.484 51.2632 50.3 51.6052 51.2 51.7492C51.452 51.7852 51.128 51.5692 50.498 51.2812L49.346 50.7232L51.938 49.8592L54.53 48.9952L52.298 48.9772C51.074 48.9592 50.102 48.9232 50.156 48.8692C50.21 48.8152 50.768 48.6712 51.398 48.5452C52.262 48.3832 53.36 47.8972 55.826 46.5292C57.626 45.5572 59.084 44.7292 59.048 44.6932C59.03 44.6752 58.166 44.8012 57.14 44.9992C56.114 45.1972 55.25 45.3232 55.214 45.2872C55.178 45.2692 57.104 43.9192 59.48 42.2992C61.838 40.6792 63.764 39.3292 63.728 39.2932C63.71 39.2752 62.72 39.5632 61.55 39.9592C60.38 40.3552 59.39 40.6432 59.354 40.6072C59.318 40.5712 59.732 40.2292 60.272 39.8512C61.37 39.0592 67.994 33.1192 67.886 33.0112C67.85 32.9752 67.004 33.1732 65.996 33.4792C64.988 33.7672 64.07 34.0192 63.962 34.0192C63.836 34.0192 64.268 33.6232 64.898 33.1372C65.87 32.4172 66.5 31.6432 68.804 28.3672C70.316 26.2072 71.486 24.4792 71.414 24.5332C71.342 24.5692 69.938 25.3972 68.318 26.3512C66.698 27.3052 65.348 28.0792 65.33 28.0432C65.294 28.0072 66.914 25.7212 68.93 22.9492C70.928 20.1772 72.548 17.8732 72.512 17.8372C72.458 17.7832 66.14 21.0592 54.71 27.1072C52.442 28.3132 50.534 29.2672 50.498 29.2312C50.462 29.2132 51.128 28.3852 51.956 27.4132C52.784 26.4412 54.116 24.8752 54.908 23.9392L56.366 22.2112L56.762 20.1592C56.96 19.0252 57.14 18.0172 57.14 17.9272C57.14 17.8552 56.15 18.7192 54.962 19.8712C53.756 21.0232 52.748 21.9412 52.694 21.9052C52.64 21.8332 55.25 14.4352 55.718 13.3372C55.808 13.1032 55.862 12.8872 55.826 12.8512C55.79 12.8152 53.666 14.6152 51.092 16.8652ZM43.928 60.3352L44.27 60.7492L43.82 60.3892C43.568 60.1912 43.334 60.0112 43.298 59.9932C43.262 59.9572 43.298 59.9392 43.406 59.9392C43.496 59.9392 43.73 60.1192 43.928 60.3352Z" fill="#F1F1F1"/>
<path d="M58.868 58.8052C59.534 59.6872 60.146 60.4612 60.236 60.5512C60.308 60.6592 60.38 60.4072 60.38 59.9932C60.38 59.3092 60.308 59.2012 59.138 58.2472C58.436 57.6892 57.824 57.2392 57.77 57.2392C57.716 57.2392 58.202 57.9412 58.868 58.8052Z" fill="#F1F1F1"/>
<path d="M57.446 69.7852C57.176 70.7572 56.78 72.7732 56.78 73.1152C56.78 73.2052 57.032 73.1332 57.32 72.9532L57.86 72.6472V70.7032C57.86 69.6412 57.824 68.7592 57.788 68.7592C57.752 68.7592 57.608 69.2272 57.446 69.7852Z" fill="#F1F1F1"/>
</svg>
