<svg width="90" height="90" viewBox="0 0 90 90" fill="none" xmlns="http://www.w3.org/2000/svg">
<path d="M51.192 17.226C48.636 19.458 44.802 22.788 42.678 24.642C40.554 26.478 37.512 29.142 35.91 30.546L32.994 33.102L32.67 34.416C32.454 35.28 31.662 37.116 30.384 39.69L28.404 43.65L29.79 42.3C30.906 41.22 31.158 41.04 31.086 41.4C31.032 41.652 30.78 42.786 30.51 43.938L30.042 46.044L27.486 46.692C26.082 47.07 23.67 47.7 22.14 48.132L19.35 48.906L18.234 50.67L17.1 52.434V54.198V55.944L17.802 56.502C18.306 56.898 18.702 57.06 19.17 57.06H19.836L19.476 56.466C19.152 55.962 19.134 55.818 19.35 55.332C19.566 54.828 19.8 54.702 22.23 53.838C25.686 52.632 26.604 52.614 30.258 53.622C31.644 54.018 32.922 54.45 33.084 54.576C33.48 54.882 37.818 58.5 38.142 58.788C38.574 59.184 37.872 60.768 36.918 61.488C36.486 61.83 36.036 62.1 35.928 62.1C35.784 62.1 35.784 62.064 35.928 61.956C36.162 61.812 35.298 59.4 35.01 59.4C34.92 59.4 34.236 59.67 33.534 59.976C32.472 60.462 32.22 60.642 32.22 60.966V61.38L33.12 61.02C34.146 60.606 34.38 60.588 34.38 60.84C34.38 60.948 33.984 61.236 33.48 61.524C32.778 61.902 32.544 62.172 32.292 62.784C32.13 63.216 32.04 63.594 32.076 63.63C32.112 63.684 32.472 63.396 32.85 63C34.074 61.74 34.164 61.956 33.84 65.142C33.732 66.078 33.678 66.852 33.714 66.888C33.786 66.96 35.622 64.674 35.748 64.368C35.91 63.954 36.162 63.99 38.376 64.89C39.492 65.34 40.482 65.7 40.59 65.7C40.896 65.7 42.318 62.334 42.516 61.092C42.696 60.012 42.93 59.652 43.11 60.156C43.164 60.282 43.092 61.92 42.948 63.774L42.714 67.158L41.31 68.454C40.536 69.174 39.852 69.768 39.78 69.804C39.726 69.822 39.474 69.318 39.258 68.67C39.024 68.022 38.772 67.5 38.718 67.536C36.576 68.436 35.82 68.886 35.82 69.264C35.82 69.66 35.82 69.66 36.504 69.372C37.854 68.796 37.962 68.778 38.034 68.994C38.07 69.12 37.71 69.444 37.224 69.714C36.54 70.11 36.252 70.416 35.982 71.046C35.784 71.496 35.658 71.892 35.694 71.928C35.73 71.964 36.072 71.676 36.45 71.28C37.602 70.092 37.746 70.236 37.566 72.396C37.35 75.276 37.368 75.312 38.484 73.908C39.006 73.26 39.528 72.72 39.654 72.72C39.762 72.72 40.41 72.936 41.094 73.188C41.76 73.44 42.354 73.638 42.372 73.602C42.408 73.566 42.84 72.756 43.308 71.82L44.19 70.11L44.244 71.208C44.28 72.126 44.19 72.594 43.596 74.142C43.2 75.132 42.894 75.96 42.93 75.96C42.948 75.96 44.136 74.376 45.54 72.432C47.268 70.038 48.15 68.976 48.24 69.138C48.312 69.282 48.222 70.722 48.042 72.36C47.862 73.998 47.682 75.69 47.646 76.122C47.574 76.788 47.916 76.212 49.842 72.45C51.102 70.002 52.218 68.004 52.29 67.986C52.38 67.968 52.794 68.796 53.208 69.84C53.928 71.586 53.982 71.874 54 73.44L54.018 75.15L55.026 71.82L56.034 68.49L56.142 65.448L56.25 62.388L57.852 64.422C58.716 65.538 59.472 66.402 59.508 66.366C59.544 66.33 59.31 65.376 58.968 64.224C58.392 62.208 58.32 62.046 56.556 59.634L54.738 57.132L50.598 54.45C48.33 52.974 46.494 51.732 46.53 51.696C46.584 51.624 50.4 51.966 51.3 52.11C51.552 52.146 51.228 51.93 50.598 51.642L49.446 51.084L52.038 50.22L54.63 49.356L52.398 49.338C51.174 49.32 50.202 49.284 50.256 49.23C50.31 49.176 50.868 49.032 51.498 48.906C52.362 48.744 53.46 48.258 55.926 46.89C57.726 45.918 59.184 45.09 59.148 45.054C59.13 45.036 58.266 45.162 57.24 45.36C56.214 45.558 55.35 45.684 55.314 45.648C55.278 45.63 57.204 44.28 59.58 42.66C61.938 41.04 63.864 39.69 63.828 39.654C63.81 39.636 62.82 39.924 61.65 40.32C60.48 40.716 59.49 41.004 59.454 40.968C59.418 40.932 59.832 40.59 60.372 40.212C61.47 39.42 68.094 33.48 67.986 33.372C67.95 33.336 67.104 33.534 66.096 33.84C65.088 34.128 64.17 34.38 64.062 34.38C63.936 34.38 64.368 33.984 64.998 33.498C65.97 32.778 66.6 32.004 68.904 28.728C70.416 26.568 71.586 24.84 71.514 24.894C71.442 24.93 70.038 25.758 68.418 26.712C66.798 27.666 65.448 28.44 65.43 28.404C65.394 28.368 67.014 26.082 69.03 23.31C71.028 20.538 72.648 18.234 72.612 18.198C72.558 18.144 66.24 21.42 54.81 27.468C52.542 28.674 50.634 29.628 50.598 29.592C50.562 29.574 51.228 28.746 52.056 27.774C52.884 26.802 54.216 25.236 55.008 24.3L56.466 22.572L56.862 20.52C57.06 19.386 57.24 18.378 57.24 18.288C57.24 18.216 56.25 19.08 55.062 20.232C53.856 21.384 52.848 22.302 52.794 22.266C52.74 22.194 55.35 14.796 55.818 13.698C55.908 13.464 55.962 13.248 55.926 13.212C55.89 13.176 53.766 14.976 51.192 17.226ZM44.028 60.696L44.37 61.11L43.92 60.75C43.668 60.552 43.434 60.372 43.398 60.354C43.362 60.318 43.398 60.3 43.506 60.3C43.596 60.3 43.83 60.48 44.028 60.696Z" fill="black"/>
<path d="M58.968 59.166C59.634 60.048 60.246 60.822 60.336 60.912C60.408 61.02 60.48 60.768 60.48 60.354C60.48 59.67 60.408 59.562 59.238 58.608C58.536 58.05 57.924 57.6 57.87 57.6C57.816 57.6 58.302 58.302 58.968 59.166Z" fill="black"/>
<path d="M57.546 70.146C57.276 71.118 56.88 73.134 56.88 73.476C56.88 73.566 57.132 73.494 57.42 73.314L57.96 73.008V71.064C57.96 70.002 57.924 69.12 57.888 69.12C57.852 69.12 57.708 69.588 57.546 70.146Z" fill="black"/>
</svg>
