<svg width="15" height="15" viewBox="0 0 15 15" fill="none" xmlns="http://www.w3.org/2000/svg">
<path d="M13.459 12.791L10.9219 10.2598C11.8173 9.1937 12.2666 7.82311 12.1761 6.43383C12.0855 5.04455 11.4621 3.74386 10.4359 2.80304C9.40969 1.86221 8.05987 1.35389 6.66797 1.38408C5.27608 1.41428 3.94958 1.98067 2.96512 2.96512C1.98067 3.94958 1.41428 5.27608 1.38408 6.66797C1.35389 8.05987 1.86221 9.40969 2.80304 10.4359C3.74386 11.4621 5.04455 12.0855 6.43383 12.1761C7.82311 12.2666 9.1937 11.8173 10.2598 10.9219L12.791 13.459C12.8806 13.5456 13.0004 13.594 13.125 13.594C13.2496 13.594 13.3694 13.5456 13.459 13.459C13.547 13.3701 13.5964 13.2501 13.5964 13.125C13.5964 12.9999 13.547 12.8799 13.459 12.791V12.791ZM2.34375 6.79687C2.34375 5.91613 2.60492 5.05516 3.09424 4.32285C3.58355 3.59054 4.27904 3.01977 5.09274 2.68272C5.90644 2.34568 6.80181 2.25749 7.66564 2.42931C8.52946 2.60114 9.32293 3.02526 9.94571 3.64804C10.5685 4.27082 10.9926 5.06429 11.1644 5.92811C11.3363 6.79193 11.2481 7.68731 10.911 8.50101C10.574 9.31471 10.0032 10.0102 9.2709 10.4995C8.53859 10.9888 7.67762 11.25 6.79687 11.25C5.61631 11.2484 4.48454 10.7788 3.64975 9.944C2.81496 9.10921 2.3453 7.97744 2.34375 6.79687V6.79687Z" fill="black"/>
</svg>
