<svg width="22" height="22" viewBox="0 0 22 22" fill="none" xmlns="http://www.w3.org/2000/svg">
<path d="M10.9998 3.66666C10.7567 3.66666 10.5236 3.76323 10.3517 3.93514C10.1797 4.10705 10.0832 4.34021 10.0832 4.58332V10.0833H4.58317C4.34006 10.0833 4.1069 10.1799 3.93499 10.3518C3.76308 10.5237 3.6665 10.7569 3.6665 11C3.6665 11.2431 3.76308 11.4763 3.93499 11.6482C4.1069 11.8201 4.34006 11.9167 4.58317 11.9167H10.0832V17.4167C10.0832 17.6598 10.1797 17.8929 10.3517 18.0648C10.5236 18.2367 10.7567 18.3333 10.9998 18.3333C11.243 18.3333 11.4761 18.2367 11.648 18.0648C11.8199 17.8929 11.9165 17.6598 11.9165 17.4167V11.9167H17.4165C17.6596 11.9167 17.8928 11.8201 18.0647 11.6482C18.2366 11.4763 18.3332 11.2431 18.3332 11C18.3332 10.7569 18.2366 10.5237 18.0647 10.3518C17.8928 10.1799 17.6596 10.0833 17.4165 10.0833H11.9165V4.58332C11.9165 4.34021 11.8199 4.10705 11.648 3.93514C11.4761 3.76323 11.243 3.66666 10.9998 3.66666Z" fill="white"/>
</svg>
