<svg width="36" height="36" viewBox="0 0 36 36" fill="none" xmlns="http://www.w3.org/2000/svg">
<path fill-rule="evenodd" clip-rule="evenodd" d="M17.9997 31.4999C25.4555 31.4999 31.4997 25.4557 31.4997 17.9999C31.4997 10.5442 25.4555 4.49991 17.9997 4.49991C10.5439 4.49991 4.4997 10.5442 4.4997 17.9999C4.4997 25.4557 10.5439 31.4999 17.9997 31.4999ZM17.9997 32.9999C26.2842 32.9999 32.9997 26.2844 32.9997 17.9999C32.9997 9.71541 26.2842 2.99991 17.9997 2.99991C9.7152 2.99991 2.99969 9.71541 2.99969 17.9999C2.99969 26.2844 9.7152 32.9999 17.9997 32.9999Z" fill="black"/>
<path d="M8.99969 26.7224C8.99969 25.9476 9.5787 25.2929 10.3497 25.2074C16.136 24.5669 19.8897 24.6246 25.6632 25.2216C25.9515 25.2519 26.2248 25.3655 26.4496 25.5485C26.6744 25.7315 26.8411 25.9761 26.9292 26.2522C27.0173 26.5284 27.0231 26.8243 26.9459 27.1037C26.8686 27.3831 26.7117 27.634 26.4942 27.8256C19.6805 33.7649 15.7865 33.6831 9.4797 27.8316C9.1722 27.5466 8.99969 27.1416 8.99969 26.7231V26.7224Z" fill="black"/>
<path fill-rule="evenodd" clip-rule="evenodd" d="M25.586 25.9671C19.8582 25.3746 16.1585 25.3191 10.4315 25.9529C10.2429 25.9749 10.0691 26.0656 9.94335 26.2077C9.81756 26.3498 9.74861 26.5334 9.7497 26.7231C9.7497 26.9376 9.83895 27.1409 9.9897 27.2819C13.1157 30.1814 15.4842 31.4916 17.7995 31.4999C20.123 31.5081 22.619 30.2084 26.0015 27.2609C26.1089 27.1652 26.1863 27.0404 26.2241 26.9017C26.262 26.7629 26.2587 26.6161 26.2147 26.4791C26.1707 26.3422 26.0878 26.2209 25.9762 26.1302C25.8646 26.0394 25.729 25.983 25.586 25.9679V25.9671ZM10.2672 24.4619C16.1142 23.8146 19.9227 23.8731 25.7412 24.4754C26.1749 24.5207 26.586 24.6914 26.9242 24.9667C27.2624 25.2421 27.513 25.61 27.6452 26.0256C27.7775 26.4411 27.7858 26.8862 27.669 27.3063C27.5522 27.7265 27.3154 28.1035 26.9877 28.3911C23.5565 31.3821 20.699 33.0111 17.795 32.9999C14.8827 32.9894 12.1512 31.3326 8.97045 28.3814C8.74271 28.1693 8.56117 27.9125 8.43716 27.627C8.31314 27.3416 8.24933 27.0336 8.2497 26.7224C8.24861 26.1632 8.45385 25.6233 8.82612 25.206C9.19839 24.7888 9.71151 24.5236 10.2672 24.4611V24.4619Z" fill="black"/>
<path d="M23.9997 14.9999C23.9997 16.5912 23.3676 18.1173 22.2423 19.2425C21.1171 20.3678 19.591 20.9999 17.9997 20.9999C16.4084 20.9999 14.8823 20.3678 13.7571 19.2425C12.6318 18.1173 11.9997 16.5912 11.9997 14.9999C11.9997 13.4086 12.6318 11.8825 13.7571 10.7573C14.8823 9.63205 16.4084 8.99991 17.9997 8.99991C19.591 8.99991 21.1171 9.63205 22.2423 10.7573C23.3676 11.8825 23.9997 13.4086 23.9997 14.9999V14.9999Z" fill="black"/>
<path fill-rule="evenodd" clip-rule="evenodd" d="M17.9997 19.4999C19.1932 19.4999 20.3378 19.0258 21.1817 18.1819C22.0256 17.338 22.4997 16.1934 22.4997 14.9999C22.4997 13.8064 22.0256 12.6618 21.1817 11.8179C20.3378 10.974 19.1932 10.4999 17.9997 10.4999C16.8062 10.4999 15.6616 10.974 14.8177 11.8179C13.9738 12.6618 13.4997 13.8064 13.4997 14.9999C13.4997 16.1934 13.9738 17.338 14.8177 18.1819C15.6616 19.0258 16.8062 19.4999 17.9997 19.4999V19.4999ZM17.9997 20.9999C19.591 20.9999 21.1171 20.3678 22.2423 19.2425C23.3676 18.1173 23.9997 16.5912 23.9997 14.9999C23.9997 13.4086 23.3676 11.8825 22.2423 10.7573C21.1171 9.63205 19.591 8.99991 17.9997 8.99991C16.4084 8.99991 14.8823 9.63205 13.7571 10.7573C12.6318 11.8825 11.9997 13.4086 11.9997 14.9999C11.9997 16.5912 12.6318 18.1173 13.7571 19.2425C14.8823 20.3678 16.4084 20.9999 17.9997 20.9999V20.9999Z" fill="black"/>
</svg>
