<svg width="415" height="530" viewBox="0 0 415 530" fill="none" xmlns="http://www.w3.org/2000/svg">
<path d="M207.5 529.571C322.099 529.571 415 471.617 415 400.126C415 328.636 322.099 270.681 207.5 270.681C92.9009 270.681 0 328.636 0 400.126C0 471.617 92.9009 529.571 207.5 529.571Z" fill="#F5F5F5"/>
<path d="M293.849 481.744L138.958 383.532C137.596 382.67 136.464 381.429 135.677 379.934C134.89 378.439 134.476 376.742 134.476 375.016C134.476 373.289 134.89 371.592 135.677 370.097C136.464 368.602 137.596 367.361 138.958 366.499L154.238 355.918C156.875 354.25 159.866 353.372 162.909 353.372C165.953 353.372 168.943 354.25 171.581 355.918L326.493 454.141C327.855 455.003 328.987 456.244 329.774 457.739C330.561 459.234 330.975 460.931 330.975 462.658C330.975 464.384 330.561 466.081 329.774 467.576C328.987 469.071 327.855 470.312 326.493 471.174L311.213 481.744C308.574 483.421 305.58 484.304 302.531 484.304C299.482 484.304 296.487 483.421 293.849 481.744Z" fill="#E0E0E0"/>
<path d="M58.3381 392.205C76.902 392.205 91.9509 382.715 91.9509 371.009C91.9509 359.302 76.902 349.812 58.3381 349.812C39.7743 349.812 24.7253 359.302 24.7253 371.009C24.7253 382.715 39.7743 392.205 58.3381 392.205Z" fill="#E6E6E6"/>
<path d="M348.775 397.062L363.517 406.371C363.517 406.371 355.988 380.387 360 354.195C361.516 344.296 364.77 339.382 365.908 336.734C367.045 334.086 375.859 317.723 368.014 310.229C360.169 302.736 341.919 317.804 342.909 358.127C343.359 371.325 345.33 384.408 348.775 397.062Z" fill="#555C79"/>
<path opacity="0.5" d="M348.775 397.062L363.517 406.371C363.517 406.371 355.988 380.387 360 354.195C361.516 344.296 364.77 339.382 365.908 336.734C367.045 334.086 375.859 317.723 368.014 310.229C360.169 302.736 341.919 317.804 342.909 358.127C343.359 371.325 345.33 384.408 348.775 397.062Z" fill="black"/>
<path d="M355.63 401.965C355.522 401.968 355.417 401.933 355.328 401.867C355.24 401.801 355.172 401.706 355.135 401.595C355.082 401.422 349.448 384.515 349.627 357.34C349.806 330.166 362.811 315.41 362.938 315.271C362.987 315.217 363.045 315.174 363.109 315.145C363.173 315.115 363.242 315.1 363.312 315.1C363.381 315.1 363.45 315.115 363.514 315.145C363.578 315.174 363.637 315.217 363.685 315.271C363.735 315.325 363.774 315.389 363.801 315.46C363.827 315.53 363.841 315.606 363.841 315.682C363.841 315.758 363.827 315.834 363.801 315.904C363.774 315.975 363.735 316.039 363.685 316.092C363.559 316.231 350.86 330.547 350.681 357.352C350.501 384.157 356.062 401.04 356.125 401.202C356.172 401.346 356.165 401.505 356.106 401.644C356.047 401.783 355.94 401.89 355.809 401.942C355.751 401.962 355.69 401.97 355.63 401.965Z" fill="white"/>
<path d="M354.924 401.04L375.079 413.76C377.179 415.123 379.67 415.567 382.055 415.004C384.44 414.44 386.544 412.91 387.947 410.719C389.281 408.439 389.844 405.718 389.537 403.029C388.569 391.535 384.02 388.886 389.59 383.764C395.161 378.641 396.614 378.282 396.298 373.356C395.982 368.43 392.918 366.279 391.464 364.336C390.011 362.394 385.989 358.323 388.727 352.31C391.464 346.297 395.203 340.48 389.537 337.821C386.157 336.225 380.523 338.353 376.817 342.77C373.11 347.187 370.056 350.367 366.508 351.431C362.959 352.495 355.567 352.669 355.883 359.387C356.198 366.106 357.82 368.407 356.367 371.402C353.629 376.999 341.719 380.179 354.924 401.04Z" fill="#555C79"/>
<path d="M364.886 407.886C364.755 407.881 364.63 407.825 364.533 407.727C364.436 407.63 364.375 407.497 364.36 407.354C364.36 406.961 361.264 367.274 386.115 340.862C386.218 340.769 386.349 340.722 386.481 340.731C386.614 340.739 386.739 340.803 386.831 340.908C386.923 341.013 386.975 341.153 386.977 341.299C386.979 341.445 386.931 341.586 386.842 341.695C362.348 367.725 365.381 406.857 365.413 407.25C365.425 407.401 365.381 407.552 365.293 407.669C365.204 407.786 365.077 407.859 364.939 407.874L364.886 407.886Z" fill="white"/>
<path d="M368.877 373.726C368.745 373.727 368.617 373.672 368.519 373.574C368.421 373.475 368.361 373.339 368.351 373.194C368.13 370.119 367.341 367.125 366.032 364.395C364.723 361.665 362.922 359.257 360.737 357.317C360.68 357.273 360.632 357.218 360.595 357.153C360.557 357.089 360.532 357.017 360.521 356.941C360.509 356.866 360.511 356.789 360.526 356.715C360.542 356.64 360.571 356.57 360.611 356.508C360.65 356.446 360.7 356.393 360.758 356.352C360.815 356.311 360.88 356.284 360.948 356.271C361.015 356.258 361.085 356.26 361.152 356.277C361.219 356.293 361.282 356.325 361.338 356.369C363.665 358.396 365.584 360.932 366.973 363.817C368.362 366.701 369.189 369.871 369.404 373.125C369.415 373.28 369.371 373.433 369.281 373.552C369.19 373.671 369.06 373.746 368.919 373.761L368.877 373.726Z" fill="white"/>
<path d="M367.161 380.537C367.034 380.539 366.91 380.489 366.813 380.399C366.709 380.296 366.645 380.153 366.635 380C366.625 379.846 366.67 379.695 366.761 379.578C367.013 379.254 373.237 371.714 387.821 373.715C387.96 373.735 388.085 373.814 388.17 373.936C388.255 374.057 388.292 374.21 388.274 374.362C388.256 374.515 388.184 374.653 388.074 374.748C387.963 374.843 387.824 374.887 387.685 374.871C373.679 372.94 367.603 380.271 367.54 380.341C367.492 380.4 367.434 380.448 367.369 380.481C367.304 380.515 367.233 380.534 367.161 380.537Z" fill="white"/>
<path d="M289.131 470.006L152.911 383.636C143.297 377.542 135.504 361.191 135.504 347.118V26.8008C135.504 12.7277 143.297 6.2635 152.911 12.3576L289.131 98.7276C298.745 104.822 306.538 121.173 306.538 135.246V455.563C306.538 469.625 298.745 476.1 289.131 470.006Z" fill="#455A64"/>
<path d="M304.821 88.6555L168.591 2.28554C164.484 -0.316315 160.714 -0.616974 157.734 0.978829C157.369 1.17947 157.017 1.40743 156.681 1.66109L141.412 11.4094C144.487 9.38571 148.509 9.53604 152.921 12.3345L289.142 98.7045C298.756 104.799 306.548 121.15 306.548 135.223V455.54C306.548 462.987 304.369 468.26 300.894 470.758L315.962 461.125C319.806 458.882 322.281 453.389 322.281 445.514V125.197C322.281 111.101 314.436 94.7496 304.821 88.6555Z" fill="#37474F"/>
<path d="M306.538 135.223V455.54C306.538 462.987 304.358 468.26 300.883 470.758L315.962 461.125C319.806 458.882 322.28 453.389 322.28 445.514V125.197L306.59 135.2L306.538 135.223Z" fill="#263238"/>
<path d="M322.228 150.048L306.538 159.992V167.763L322.228 157.807V150.048Z" fill="#37474F"/>
<path d="M315.352 201.726C313.951 202.617 312.814 201.668 312.814 199.622V182.912C312.828 181.867 313.065 180.841 313.506 179.915C313.946 178.989 314.579 178.19 315.352 177.581C316.752 176.691 317.889 177.581 317.889 179.686V196.395C317.875 197.44 317.638 198.466 317.197 199.392C316.757 200.318 316.124 201.117 315.352 201.726Z" fill="#37474F"/>
<path d="M312.803 199.668V182.912C312.817 181.868 313.054 180.841 313.495 179.915C313.936 178.99 314.568 178.19 315.341 177.581C315.572 177.404 315.841 177.296 316.122 177.267C316.402 177.239 316.685 177.291 316.942 177.419L315.036 176.344C314.775 176.206 314.486 176.146 314.197 176.171C313.909 176.195 313.631 176.303 313.393 176.483C312.619 177.092 311.986 177.891 311.543 178.816C311.101 179.742 310.862 180.768 310.845 181.814V198.512C310.805 198.933 310.863 199.359 311.014 199.75C311.165 200.14 311.404 200.482 311.708 200.743L313.698 201.9C313.381 201.649 313.131 201.31 312.974 200.918C312.817 200.525 312.758 200.094 312.803 199.668Z" fill="#455A64"/>
<path d="M315.352 242.165C313.951 243.055 312.814 242.165 312.814 240.06V223.351C312.829 222.306 313.066 221.28 313.507 220.355C313.947 219.429 314.579 218.629 315.352 218.02C316.752 217.129 317.889 218.02 317.889 220.136V236.834C317.877 237.879 317.641 238.906 317.2 239.832C316.759 240.758 316.126 241.557 315.352 242.165Z" fill="#37474F"/>
<path d="M312.803 240.06V223.351C312.818 222.306 313.056 221.28 313.496 220.355C313.937 219.429 314.569 218.629 315.341 218.02C315.573 217.845 315.842 217.739 316.122 217.711C316.403 217.683 316.685 217.733 316.942 217.858L315.036 216.771C314.777 216.627 314.486 216.564 314.197 216.588C313.907 216.613 313.629 216.724 313.393 216.91C312.618 217.517 311.983 218.316 311.54 219.242C311.098 220.168 310.859 221.195 310.845 222.241V238.985C310.804 239.407 310.862 239.833 311.013 240.224C311.164 240.614 311.404 240.956 311.708 241.217L313.699 242.373C313.369 242.117 313.11 241.765 312.952 241.356C312.794 240.948 312.743 240.499 312.803 240.06Z" fill="#455A64"/>
<path d="M284.371 107.713L150.51 22.8114C149.951 22.4584 149.318 22.2721 148.673 22.2708C148.029 22.2694 147.395 22.4532 146.835 22.8039C146.276 23.1545 145.809 23.6599 145.482 24.2697C145.155 24.8796 144.979 25.5728 144.971 26.2805V347.118C144.971 357.826 151.889 370.974 160.334 376.328L290.91 459.16C291.53 459.551 292.232 459.757 292.946 459.756C293.661 459.755 294.362 459.548 294.981 459.156C295.6 458.764 296.114 458.199 296.471 457.52C296.829 456.841 297.017 456.07 297.018 455.286V131.8C297.071 122.965 291.363 112.13 284.371 107.713Z" fill="#555C79"/>
<path opacity="0.9" d="M284.371 107.713L150.51 22.8114C149.951 22.4584 149.318 22.2721 148.673 22.2708C148.029 22.2694 147.395 22.4532 146.835 22.8039C146.276 23.1545 145.809 23.6599 145.482 24.2697C145.155 24.8796 144.979 25.5728 144.971 26.2805V347.118C144.971 357.826 151.889 370.974 160.334 376.328L290.91 459.16C291.53 459.551 292.232 459.757 292.946 459.756C293.661 459.755 294.362 459.548 294.981 459.156C295.6 458.764 296.114 458.199 296.471 457.52C296.829 456.841 297.017 456.07 297.018 455.286V131.8C297.071 122.965 291.363 112.13 284.371 107.713Z" fill="white"/>
<path d="M190.546 44.9791L192.621 54.5655L236.995 82.6655L244.661 78.1788L190.546 44.9791Z" fill="#455A64"/>
<path d="M203.593 54.2419C203.593 55.8377 202.54 56.4737 201.319 55.6873C200.663 55.2092 200.119 54.5689 199.729 53.8178C199.34 53.0667 199.116 52.2257 199.076 51.3625C199.076 49.7782 200.129 49.1307 201.35 49.9286C202.006 50.4042 202.551 51.0423 202.94 51.7916C203.33 52.5408 203.554 53.3802 203.593 54.2419Z" fill="#263238"/>
<path d="M233.489 74.5362C233.246 74.534 233.007 74.4665 232.794 74.3396L210.133 60.463C209.813 60.2567 209.579 59.9211 209.481 59.528C209.383 59.135 209.429 58.7155 209.61 58.3592C209.79 58.003 210.089 57.7382 210.445 57.6213C210.8 57.5045 211.183 57.5449 211.512 57.734L234.184 71.6105C234.459 71.7787 234.676 72.0428 234.8 72.3611C234.924 72.6795 234.948 73.0341 234.869 73.3691C234.789 73.7042 234.61 74.0006 234.361 74.2119C234.111 74.4232 233.804 74.5372 233.489 74.5362Z" fill="#263238"/>
<path d="M173.045 89.5807C171.665 88.7019 170.665 89.4651 170.665 91.3963C170.665 92.362 170.882 93.3127 171.297 94.1641C171.712 95.0154 172.313 95.7409 173.045 96.2762C173.437 96.5375 173.887 96.6757 174.345 96.6757C174.804 96.6757 175.254 96.5375 175.646 96.2762L177.846 100.647C177.072 101.116 176.194 101.34 175.311 101.293C174.428 101.246 173.574 100.93 172.845 100.381C171.057 99.18 169.566 97.5133 168.504 95.5286C167.443 93.5439 166.843 91.3024 166.758 89.0025C166.758 84.7124 169.38 83.2206 172.992 85.5334C175.032 86.9758 176.703 88.9659 177.846 91.3153L175.646 93.2349C175.103 91.7762 174.203 90.5113 173.045 89.5807Z" fill="#555C79"/>
<path d="M190.515 104.07C190.515 108.395 187.85 109.852 184.196 107.539C182.357 106.332 180.818 104.645 179.716 102.628C178.614 100.611 177.982 98.3254 177.878 95.9755C177.878 91.6507 180.542 90.1936 184.196 92.5064C186.04 93.7078 187.582 95.3936 188.685 97.4121C189.788 99.4307 190.417 101.719 190.515 104.07ZM181.785 98.5543C181.803 99.5471 182.036 100.521 182.465 101.396C182.893 102.27 183.505 103.02 184.249 103.585C185.555 104.417 186.608 103.585 186.608 101.619C186.604 100.648 186.388 99.6929 185.978 98.8335C185.567 97.9741 184.974 97.2358 184.249 96.6809C182.922 95.8368 181.785 96.5537 181.785 98.5543Z" fill="#555C79"/>
<path d="M194.758 99.4793L199.307 109.887V102.393L202.751 104.579V119.161L199.592 117.149L195.064 106.834V114.281L191.599 112.084V97.4672L194.758 99.4793Z" fill="#555C79"/>
<path d="M214.008 111.679V115.495L210.722 113.414V124.191L206.921 121.774V110.997L203.656 108.927V105.122L214.008 111.679Z" fill="#555C79"/>
<path d="M221.421 128.909L217.104 126.169L216.514 127.857L212.618 125.382L217.472 113.876L221.379 116.351L226.054 133.905L222 131.338L221.421 128.909ZM220.484 124.862L219.304 119.878L218.093 123.347L220.484 124.862Z" fill="#555C79"/>
<path d="M232.088 127.013C230.709 126.145 229.708 126.897 229.708 128.84C229.71 129.805 229.928 130.755 230.343 131.606C230.758 132.457 231.358 133.183 232.088 133.72C232.483 133.978 232.934 134.115 233.394 134.115C233.854 134.115 234.305 133.978 234.7 133.72L236.901 138.091C236.123 138.555 235.244 138.775 234.361 138.728C233.477 138.681 232.622 138.369 231.888 137.825C230.099 136.622 228.607 134.954 227.545 132.967C226.484 130.98 225.885 128.736 225.802 126.434C225.802 122.144 228.434 120.653 232.036 122.965C234.073 124.415 235.746 126.403 236.901 128.747L234.7 130.655C234.145 129.204 233.243 127.945 232.088 127.013Z" fill="#555C79"/>
<path d="M247.284 132.783V136.588L243.998 134.506V145.318L240.197 142.901V132.124L236.932 130.054V126.25L247.284 132.783Z" fill="#555C79"/>
<path d="M258.52 150.684C259.457 151.274 260.173 150.811 260.173 149.366V140.959L263.985 143.364V151.771C263.985 155.645 261.879 156.801 258.509 154.685C256.886 153.695 255.521 152.264 254.546 150.529C253.57 148.793 253.017 146.812 252.938 144.775V136.368L256.75 138.785V147.192C256.765 147.888 256.934 148.569 257.242 149.178C257.55 149.786 257.989 150.303 258.52 150.684Z" fill="#555C79"/>
<path d="M270.124 150.73C269.692 150.464 269.418 150.452 269.418 150.892C269.418 152.719 275.368 155.356 275.368 160.64C275.368 163.878 273.125 163.89 270.534 162.248C268.257 160.715 266.296 158.679 264.774 156.269L266.185 153.54C267.343 155.509 268.83 157.219 270.566 158.582C271.124 158.94 271.482 158.94 271.482 158.42C271.482 156.523 265.522 154.003 265.522 148.88C265.522 145.966 267.46 145.411 270.45 147.261C272.377 148.54 274.072 150.199 275.452 152.152L274.073 154.951C272.933 153.357 271.605 151.938 270.124 150.73Z" fill="#555C79"/>
<path d="M153.89 161.438C158.163 155.675 160.313 148.364 159.918 140.945C159.523 133.527 156.61 126.54 151.754 121.364C146.898 116.189 140.452 113.199 133.688 112.986C126.924 112.773 120.332 115.352 115.214 120.213C110.096 125.075 106.823 131.866 106.041 139.247C105.259 146.629 107.024 154.064 110.989 160.086C114.953 166.108 120.829 170.28 127.457 171.779C134.086 173.277 140.984 171.993 146.793 168.18L159.977 174.471L153.89 161.438Z" fill="#555C79"/>
<path opacity="0.4" d="M153.89 161.438C158.163 155.675 160.313 148.364 159.918 140.945C159.523 133.527 156.61 126.54 151.754 121.364C146.898 116.189 140.452 113.199 133.688 112.986C126.924 112.773 120.332 115.352 115.214 120.213C110.096 125.075 106.823 131.866 106.041 139.247C105.259 146.629 107.024 154.064 110.989 160.086C114.953 166.108 120.829 170.28 127.457 171.779C134.086 173.277 140.984 171.993 146.793 168.18L159.977 174.471L153.89 161.438Z" fill="black"/>
<path d="M122.889 141.086C122.889 140.635 122.594 140.38 122.057 140.38C120.811 140.56 119.648 141.162 118.729 142.103L117.234 138.912C118.808 137.611 120.709 136.876 122.678 136.807C125.206 136.807 127.122 138.264 127.122 140.438C127.122 141.988 126.069 143.48 124.721 144.971L122.836 147.018H127.291V150.418H117.719V147.631L121.983 142.786C122.443 142.34 122.76 141.744 122.889 141.086Z" fill="white"/>
<path d="M135.083 137.004L132.176 144.659H133.366V142.08H137.031V144.659H138.421V147.816H137.031V150.418H133.366V147.816H128.154V144.948L131.313 137.004H135.083Z" fill="white"/>
<path d="M149.731 143.746V150.418H145.813V144.983C145.836 144.806 145.824 144.626 145.777 144.454C145.731 144.283 145.652 144.125 145.545 143.99C145.438 143.855 145.306 143.747 145.158 143.673C145.01 143.599 144.849 143.561 144.687 143.561C143.918 143.561 143.433 144.22 143.433 145.237V150.418H139.516V136.241H143.433V141.456C143.74 140.924 144.167 140.489 144.673 140.193C145.179 139.897 145.746 139.75 146.319 139.768C146.788 139.754 147.255 139.85 147.689 140.048C148.122 140.247 148.513 140.543 148.835 140.919C149.157 141.294 149.403 141.74 149.557 142.227C149.712 142.714 149.771 143.232 149.731 143.746Z" fill="white"/>
<path d="M277.464 251.196V394.876C277.466 396.501 277.078 398.099 276.34 399.507C275.601 400.915 274.538 402.085 273.257 402.898C271.976 403.712 270.522 404.141 269.043 404.141C267.563 404.142 266.109 403.714 264.827 402.902L194.358 358.219L181.869 350.31C177.569 347.579 173.996 343.656 171.509 338.934C169.022 334.212 167.707 328.856 167.696 323.401V179.709C167.693 178.084 168.081 176.487 168.82 175.079C169.558 173.67 170.621 172.501 171.902 171.687C173.183 170.873 174.637 170.445 176.117 170.444C177.597 170.444 179.05 170.871 180.332 171.684L263.311 224.287C267.613 227.014 271.186 230.936 273.671 235.659C276.155 240.383 277.463 245.741 277.464 251.196Z" fill="#555C79"/>
<path opacity="0.5" d="M277.464 251.196V394.876C277.466 396.501 277.078 398.099 276.34 399.507C275.601 400.915 274.538 402.085 273.257 402.898C271.976 403.712 270.522 404.141 269.043 404.141C267.563 404.142 266.109 403.714 264.827 402.902L194.358 358.219L181.869 350.31C177.569 347.579 173.996 343.656 171.509 338.934C169.022 334.212 167.707 328.856 167.696 323.401V179.709C167.693 178.084 168.081 176.487 168.82 175.079C169.558 173.67 170.621 172.501 171.902 171.687C173.183 170.873 174.637 170.445 176.117 170.444C177.597 170.444 179.05 170.871 180.332 171.684L263.311 224.287C267.613 227.014 271.186 230.936 273.671 235.659C276.155 240.383 277.463 245.741 277.464 251.196Z" fill="white"/>
<path d="M236.869 336.213C236.869 336.213 250.063 360.243 240.533 387.337L194.326 358.219L236.869 336.213Z" fill="#263238"/>
<path d="M257.911 228.251C258.91 219.345 253.145 211.236 245.035 210.14C236.925 209.043 229.541 215.374 228.543 224.279C227.544 233.185 233.309 241.294 241.419 242.39C249.529 243.487 256.913 237.156 257.911 228.251Z" fill="#263238"/>
<path d="M243.303 180.692C243.303 180.692 247.842 172.597 249.232 173.187C250.622 173.777 248.326 181.49 248.326 181.49C248.326 181.49 255.192 183.062 253.918 184.959C252.643 186.855 244.251 186.404 244.251 186.404L243.303 180.692Z" fill="#263238"/>
<path d="M246.462 201.553C243.303 227.618 223.296 227.618 223.296 227.618L181.385 207.358C181.385 207.358 178.226 204.317 177.257 197.332C176.885 194.471 176.885 191.566 177.257 188.705C177.257 188.705 177.257 188.648 177.257 188.624C178.594 177.662 186.06 165.878 202.319 162.259C205.882 161.469 209.51 161.082 213.144 161.103C214.903 161.096 216.66 161.192 218.41 161.392C231.046 162.756 239.902 169.232 244.125 179.304C245.074 181.577 245.781 183.964 246.231 186.416C247.088 191.411 247.166 196.529 246.462 201.553Z" fill="#263238"/>
<path d="M145.845 251.971C145.845 251.971 130.966 251.404 125.237 267.328C125.237 267.328 131.555 272.011 139.843 267.328C148.13 262.644 145.845 251.971 145.845 251.971Z" fill="#555C79"/>
<path opacity="0.5" d="M145.845 251.971C145.845 251.971 130.966 251.404 125.237 267.328C125.237 267.328 131.555 272.011 139.843 267.328C148.13 262.644 145.845 251.971 145.845 251.971Z" fill="black"/>
<path d="M145.424 259.638C145.424 259.638 141.211 239.54 138.99 239.297C136.768 239.054 136.336 245.426 136.515 249.022L131.25 236.58C131.083 236.193 130.845 235.848 130.552 235.566C130.259 235.284 129.917 235.071 129.546 234.94C129.175 234.809 128.783 234.762 128.395 234.804C128.007 234.845 127.631 234.973 127.29 235.18C122.025 238.36 112.79 248.028 132.261 271.93L145.424 259.638Z" fill="#945959"/>
<path d="M199.339 245.738L196.18 245.287C192.996 244.824 189.757 245.299 186.796 246.665C183.835 248.031 181.259 250.237 179.331 253.058L160.535 280.534L145.792 251.971C145.792 251.971 144.023 271.398 125.184 267.328L145.413 304.714C146.693 307.08 148.475 309.073 150.607 310.521C152.739 311.969 155.158 312.83 157.658 313.031C160.158 313.232 162.665 312.767 164.967 311.675C167.268 310.583 169.295 308.897 170.875 306.76L188.187 283.39L199.339 245.738Z" fill="#555C79"/>
<path d="M239.459 309.859C235.247 321.585 234.784 323.875 237.353 329.738C239.143 334.068 240.553 338.575 241.565 343.198C241.565 343.198 222.042 367.227 194.253 358.231L181.764 350.321C179.166 348.676 176.827 346.583 174.835 344.123L178.636 312.993C178.828 311.355 178.676 309.69 178.194 308.125L174.203 295.277C172.255 289.002 171.966 282.25 173.367 275.802C174.768 269.354 177.804 263.473 182.122 258.84L195.537 244.443L230.772 249.392L236.037 251.046C239.484 252.141 242.455 254.564 244.405 257.872C246.355 261.18 247.153 265.149 246.652 269.051C244.925 282.696 242.102 302.493 239.459 309.859Z" fill="#555C79"/>
<path opacity="0.5" d="M239.459 309.859C235.247 321.585 234.784 323.875 237.353 329.738C239.143 334.068 240.553 338.575 241.565 343.198C241.565 343.198 222.042 367.227 194.253 358.231L181.764 350.321C179.166 348.676 176.827 346.583 174.835 344.123L178.636 312.993C178.828 311.355 178.676 309.69 178.194 308.125L174.203 295.277C172.255 289.002 171.966 282.25 173.367 275.802C174.768 269.354 177.804 263.473 182.122 258.84L195.537 244.443L230.772 249.392L236.037 251.046C239.484 252.141 242.455 254.564 244.405 257.872C246.355 261.18 247.153 265.149 246.652 269.051C244.925 282.696 242.102 302.493 239.459 309.859Z" fill="black"/>
<path d="M218.209 274.833L211.154 268.23C210.407 267.528 209.506 267.052 208.54 266.849C207.574 266.646 206.577 266.724 205.647 267.073L197.117 270.3L195.969 265.05C195.79 264.233 195.462 263.464 195.005 262.791C194.548 262.117 193.972 261.552 193.311 261.129C192.649 260.707 191.917 260.435 191.158 260.332C190.398 260.229 189.628 260.296 188.893 260.528L185.197 261.685L191.452 248.525C193.494 244.239 196.64 240.708 200.497 238.372L202.951 236.892L223.222 238.048C223.222 238.048 230.772 241.517 230.772 249.323L218.209 274.763" fill="#555C79"/>
<path d="M223.306 247.912L202.982 265.304V209.925H223.306V247.912Z" fill="#945959"/>
<path d="M203.298 243.344L197.117 270.346L223.222 247.912L203.298 243.344Z" fill="#945959"/>
<path d="M202.982 239.332C207.502 237.489 211.633 234.657 215.125 231.007C218.616 227.358 221.396 222.967 223.295 218.101V209.925H202.972L202.982 239.332Z" fill="#703838"/>
<path d="M207.363 168.885C199.655 168.885 183.27 173.603 181.374 195.759C179.479 217.916 181.311 235.076 191.715 236.742C202.119 238.407 226.297 230.116 229.54 201.437C232.783 172.759 214.871 168.885 207.363 168.885Z" fill="#945959"/>
<path d="M195.232 205.138V218.193L188.261 215.846L195.232 205.138Z" fill="#703838"/>
<path d="M202.983 210.052C204.32 210.052 205.404 208.862 205.404 207.393C205.404 205.924 204.32 204.733 202.983 204.733C201.645 204.733 200.561 205.924 200.561 207.393C200.561 208.862 201.645 210.052 202.983 210.052Z" fill="#263238"/>
<path d="M189.462 205.542C189.46 206.068 189.316 206.581 189.048 207.017C188.781 207.453 188.402 207.792 187.959 207.991C187.516 208.191 187.03 208.242 186.561 208.138C186.092 208.034 185.661 207.78 185.323 207.407C184.986 207.035 184.756 206.561 184.663 206.046C184.571 205.53 184.619 204.996 184.803 204.51C184.987 204.025 185.297 203.61 185.695 203.319C186.093 203.027 186.561 202.871 187.04 202.871C187.359 202.871 187.674 202.94 187.969 203.075C188.263 203.209 188.531 203.406 188.756 203.654C188.981 203.902 189.159 204.197 189.28 204.521C189.401 204.845 189.463 205.192 189.462 205.542Z" fill="#263238"/>
<path d="M184.08 199.992L188.819 196.904C188.819 196.904 187.008 194.834 185.197 196.072C183.386 197.309 184.08 199.992 184.08 199.992Z" fill="#263238"/>
<path d="M191.957 223.489C194.265 223.674 196.562 222.998 198.476 221.57C198.476 221.57 198.928 225.351 196.043 226.068C193.158 226.785 191.957 223.489 191.957 223.489Z" fill="#703838"/>
<path d="M187.819 176.425C187.819 176.425 190.715 207.011 228.592 207.971C228.592 207.971 240.039 177.57 217.42 167.694C194.8 157.819 187.819 176.425 187.819 176.425Z" fill="#263238"/>
<path d="M239.744 203.391L235.089 200.431C233.32 199.275 230.877 199.437 228.171 201.148C222.8 204.548 218.441 212.839 218.441 219.65C218.441 223.061 219.494 225.432 221.305 226.588L225.875 229.479L226.139 229.641L226.297 229.745C228.024 230.67 230.33 230.451 232.867 228.843C238.238 225.374 242.597 217.152 242.597 210.341C242.566 206.895 241.481 204.513 239.744 203.391Z" fill="#555C79"/>
<path d="M239.707 220.809C243.505 213.586 243.505 205.778 239.707 203.371C235.91 200.963 229.753 204.867 225.955 212.09C222.157 219.313 222.157 227.121 225.955 229.528C229.752 231.936 235.909 228.032 239.707 220.809Z" fill="#555C79"/>
<path opacity="0.5" d="M239.707 220.809C243.505 213.586 243.505 205.778 239.707 203.371C235.91 200.963 229.753 204.867 225.955 212.09C222.157 219.313 222.157 227.121 225.955 229.528C229.752 231.936 235.909 228.032 239.707 220.809Z" fill="black"/>
<path d="M241.608 209.809L238.448 207.786C237.248 206.999 235.574 207.104 233.72 208.272C231.784 209.661 230.173 211.531 229.017 213.731C227.861 215.93 227.192 218.398 227.065 220.934C227.065 223.247 227.813 224.9 229.024 225.663L232.183 227.641C232.239 227.686 232.299 227.725 232.362 227.756L232.467 227.826C233.208 228.134 234.006 228.239 234.792 228.13C235.577 228.021 236.327 227.702 236.974 227.201C238.909 225.813 240.519 223.945 241.675 221.747C242.831 219.55 243.501 217.085 243.629 214.551C243.545 212.203 242.808 210.573 241.608 209.809Z" fill="#555C79"/>
<path d="M243.545 214.528C243.416 217.061 242.747 219.527 241.591 221.724C240.435 223.922 238.824 225.79 236.89 227.178C233.204 229.491 230.224 227.618 230.224 222.958C230.349 220.421 231.018 217.953 232.176 215.755C233.335 213.556 234.95 211.69 236.89 210.307C240.565 207.971 243.545 209.856 243.545 214.528Z" fill="#555C79"/>
<path opacity="0.3" d="M243.545 214.528C243.416 217.061 242.747 219.527 241.591 221.724C240.435 223.922 238.824 225.79 236.89 227.178C233.204 229.491 230.224 227.618 230.224 222.958C230.349 220.421 231.018 217.953 232.176 215.755C233.335 213.556 234.95 211.69 236.89 210.307C240.565 207.971 243.545 209.856 243.545 214.528Z" fill="black"/>
<path d="M225.286 162.918C222.267 160.358 218.57 158.949 214.755 158.906H213.818C209.956 158.86 206.099 159.247 202.309 160.062C203.004 160.062 203.699 160.062 204.415 160.062H202.309V162.213H204.267C211.017 162.465 217.414 165.59 222.105 170.926C226.795 176.263 229.412 183.393 229.403 190.81V199.911C229.403 200.271 229.471 200.626 229.604 200.955C229.737 201.284 229.932 201.578 230.175 201.819C230.418 202.06 230.705 202.242 231.016 202.354C231.328 202.465 231.657 202.504 231.983 202.466H232.225L234.331 201.749C234.191 201.798 234.046 201.829 233.9 201.842C234.527 201.748 235.102 201.404 235.514 200.875C235.925 200.347 236.145 199.67 236.132 198.974V190.533C236.111 175.257 230.098 167.047 225.286 162.918Z" fill="#555C79"/>
<path d="M212.028 236.106C211.16 236.106 210.301 235.901 209.511 235.504L202.93 232.162C202.827 232.122 202.733 232.058 202.653 231.976C202.574 231.894 202.511 231.794 202.468 231.683C202.426 231.573 202.405 231.454 202.406 231.334C202.408 231.214 202.432 231.095 202.477 230.986C202.523 230.877 202.588 230.779 202.67 230.699C202.751 230.619 202.847 230.558 202.951 230.521C203.055 230.484 203.165 230.471 203.273 230.483C203.382 230.494 203.488 230.531 203.583 230.59L210.164 233.932C211.004 234.36 211.944 234.49 212.854 234.304C213.764 234.117 214.598 233.623 215.24 232.891L221.558 225.721C221.706 225.559 221.907 225.468 222.116 225.468C222.325 225.468 222.526 225.559 222.674 225.721C222.82 225.885 222.901 226.105 222.901 226.334C222.901 226.563 222.82 226.783 222.674 226.947L216.356 234.117C215.794 234.751 215.12 235.254 214.377 235.596C213.633 235.937 212.834 236.111 212.028 236.106Z" fill="#555C79"/>
<path opacity="0.5" d="M212.028 236.106C211.16 236.106 210.301 235.901 209.511 235.504L202.93 232.162C202.827 232.122 202.733 232.058 202.653 231.976C202.574 231.894 202.511 231.794 202.468 231.683C202.426 231.573 202.405 231.454 202.406 231.334C202.408 231.214 202.432 231.095 202.477 230.986C202.523 230.877 202.588 230.779 202.67 230.699C202.751 230.619 202.847 230.558 202.951 230.521C203.055 230.484 203.165 230.471 203.273 230.483C203.382 230.494 203.488 230.531 203.583 230.59L210.164 233.932C211.004 234.36 211.944 234.49 212.854 234.304C213.764 234.117 214.598 233.623 215.24 232.891L221.558 225.721C221.706 225.559 221.907 225.468 222.116 225.468C222.325 225.468 222.526 225.559 222.674 225.721C222.82 225.885 222.901 226.105 222.901 226.334C222.901 226.563 222.82 226.783 222.674 226.947L216.356 234.117C215.794 234.751 215.12 235.254 214.377 235.596C213.633 235.937 212.834 236.111 212.028 236.106Z" fill="black"/>
<path d="M204.657 229.734C204.657 230.402 204.477 231.055 204.139 231.61C203.801 232.165 203.321 232.598 202.759 232.854C202.197 233.109 201.579 233.176 200.982 233.046C200.386 232.915 199.838 232.594 199.408 232.122C198.978 231.649 198.685 231.048 198.566 230.393C198.448 229.738 198.509 229.059 198.741 228.442C198.974 227.825 199.368 227.297 199.874 226.926C200.38 226.555 200.974 226.357 201.582 226.357C202.398 226.357 203.18 226.713 203.756 227.346C204.333 227.98 204.657 228.838 204.657 229.734Z" fill="#555C79"/>
<path opacity="0.5" d="M204.657 229.734C204.657 230.402 204.477 231.055 204.139 231.61C203.801 232.165 203.321 232.598 202.759 232.854C202.197 233.109 201.579 233.176 200.982 233.046C200.386 232.915 199.838 232.594 199.408 232.122C198.978 231.649 198.685 231.048 198.566 230.393C198.448 229.738 198.509 229.059 198.741 228.442C198.974 227.825 199.368 227.297 199.874 226.926C200.38 226.555 200.974 226.357 201.582 226.357C202.398 226.357 203.18 226.713 203.756 227.346C204.333 227.98 204.657 228.838 204.657 229.734Z" fill="black"/>
<path d="M236.111 190.532V198.974C236.124 199.67 235.904 200.346 235.493 200.875C235.081 201.404 234.506 201.748 233.878 201.842C233.532 201.882 233.181 201.842 232.849 201.724C232.517 201.606 232.212 201.413 231.952 201.156C231.693 200.9 231.486 200.587 231.344 200.236C231.203 199.886 231.13 199.507 231.13 199.124V190.532C231.136 186.432 230.386 182.372 228.927 178.598C227.467 174.824 225.326 171.413 222.635 168.571C219.943 165.729 216.756 163.514 213.265 162.059C209.773 160.605 206.05 159.941 202.319 160.108C206.11 159.294 209.966 158.906 213.829 158.952H214.745C218.559 158.995 222.256 160.404 225.275 162.964C230.098 167.046 236.111 175.257 236.111 190.532Z" fill="#555C79"/>
<path opacity="0.5" d="M236.111 190.532V198.974C236.124 199.67 235.904 200.346 235.493 200.875C235.081 201.404 234.506 201.748 233.878 201.842C233.532 201.882 233.181 201.842 232.849 201.724C232.517 201.606 232.212 201.413 231.952 201.156C231.693 200.9 231.486 200.587 231.344 200.236C231.203 199.886 231.13 199.507 231.13 199.124V190.532C231.136 186.432 230.386 182.372 228.927 178.598C227.467 174.824 225.326 171.413 222.635 168.571C219.943 165.729 216.756 163.514 213.265 162.059C209.773 160.605 206.05 159.941 202.319 160.108C206.11 159.294 209.966 158.906 213.829 158.952H214.745C218.559 158.995 222.256 160.404 225.275 162.964C230.098 167.046 236.111 175.257 236.111 190.532Z" fill="black"/>
<path d="M224.274 349.616C224.274 349.616 219.178 365.03 237.395 371.969C237.395 371.969 243.345 362.371 237.395 354.519C231.446 346.667 224.274 349.616 224.274 349.616Z" fill="#555C79"/>
<path opacity="0.7" d="M224.274 349.616C224.274 349.616 219.178 365.03 237.395 371.969C237.395 371.969 243.345 362.371 237.395 354.519C231.446 346.667 224.274 349.616 224.274 349.616Z" fill="black"/>
<path d="M230.667 350.321C230.667 350.321 212.87 357.479 212.965 360.254C213.06 363.03 220.526 361.133 220.526 361.133L217.799 363.099C214.927 365.157 212.702 368.137 211.428 371.633C211.15 372.404 211.14 373.261 211.401 374.039C211.661 374.817 212.173 375.463 212.839 375.854L219.599 379.786C219.981 380.008 220.4 380.144 220.83 380.186C221.261 380.228 221.694 380.174 222.106 380.028C222.517 379.883 222.898 379.648 223.225 379.338C223.552 379.029 223.82 378.65 224.011 378.224C224.388 377.407 224.909 376.679 225.544 376.084C226.178 375.488 226.913 375.037 227.708 374.755C231.383 373.414 238.238 369.552 240.986 358.982L230.667 350.321Z" fill="#945959"/>
<path d="M236.005 251.023C236.005 251.023 226.528 256.805 231.562 274.359C236.595 291.912 246.041 319.145 246.041 319.145L224.275 349.616C226.6 349.924 228.84 350.767 230.849 352.09C232.857 353.413 234.589 355.186 235.932 357.294C237.218 359.438 238.021 361.886 238.275 364.437C238.53 366.989 238.228 369.57 237.395 371.969L264.416 333.808C266.915 330.281 268.574 326.127 269.243 321.719C269.913 317.312 269.571 312.79 268.249 308.564L256.666 271.421C255.25 266.884 252.897 262.768 249.791 259.396C246.686 256.024 242.912 253.486 238.764 251.983L236.005 251.023Z" fill="#555C79"/>
<path d="M76.029 147.33L34.1499 120.734C33.668 120.367 33.1104 120.138 32.5275 120.067C31.9447 119.996 31.355 120.086 30.8118 120.329C30.6973 120.387 30.588 120.457 30.4854 120.537L21.3766 126.4H21.4398C20.292 127.117 19.5654 128.782 19.5654 131.164V182.322C19.5654 186.647 21.9558 191.677 24.9148 193.551L66.7939 220.148C67.3253 220.57 67.9578 220.811 68.613 220.842C69.2682 220.873 69.9172 220.692 70.4795 220.321C70.4511 220.333 70.4258 220.353 70.4058 220.379L79.4514 214.597C80.6308 213.903 81.3784 212.215 81.3784 209.798V158.559C81.3784 154.234 79.0302 149.204 76.029 147.33Z" fill="#555C79"/>
<path d="M79.8829 152.176C79.0357 150.197 77.7005 148.518 76.0288 147.33L34.1497 120.734C33.6678 120.367 33.1102 120.138 32.5274 120.067C31.9445 119.996 31.3548 120.086 30.8116 120.329C30.6971 120.387 30.5879 120.457 30.4852 120.537L21.3765 126.4C21.9337 126.087 22.5584 125.949 23.1825 126C23.8065 126.051 24.4057 126.289 24.9147 126.689L66.7937 153.286C68.5223 154.527 69.8923 156.284 70.7426 158.351L79.8829 152.176Z" fill="#555C79"/>
<path d="M72.143 215.649C72.143 217.962 71.4691 219.569 70.4055 220.275L79.4511 214.493C80.6305 213.799 81.3781 212.111 81.3781 209.694V158.559C81.3336 156.333 80.8219 154.148 79.8828 152.175L70.7425 158.35C71.6201 160.265 72.0985 162.371 72.143 164.514V215.649Z" fill="#555C79"/>
<path opacity="0.3" d="M79.8829 152.176C79.0357 150.197 77.7005 148.518 76.0288 147.33L34.1497 120.734C33.6678 120.367 33.1102 120.138 32.5274 120.067C31.9445 119.996 31.3548 120.086 30.8116 120.329C30.6971 120.387 30.5879 120.457 30.4852 120.537L21.3765 126.4C21.9337 126.087 22.5584 125.949 23.1825 126C23.8065 126.051 24.4057 126.289 24.9147 126.689L66.7937 153.286C68.5223 154.527 69.8923 156.284 70.7426 158.351L79.8829 152.176Z" fill="black"/>
<path opacity="0.6" d="M72.143 215.649C72.143 217.962 71.4691 219.569 70.4055 220.275L79.4511 214.493C80.6305 213.799 81.3781 212.111 81.3781 209.694V158.559C81.3336 156.333 80.8219 154.148 79.8828 152.175L70.7425 158.35C71.6201 160.265 72.0985 162.371 72.143 164.514V215.649Z" fill="black"/>
<path d="M59.8648 179.165C59.8648 185.791 57.4744 188.046 53.8941 185.768C52.9065 185.151 52.0428 184.32 51.3551 183.327C50.6674 182.333 50.1699 181.197 49.8926 179.986C48.8396 181.409 47.2074 181.501 44.9118 180.044C41.1419 177.65 38.1724 171.95 38.1724 166.41C38.1724 160.871 41.1103 158.963 44.9118 161.369C46.8408 162.617 48.3989 164.453 49.3977 166.653V164.468L53.3676 166.989V178.969C53.3085 179.599 53.4078 180.235 53.6547 180.808C53.9016 181.381 54.2867 181.869 54.7681 182.218C56.1055 183.074 56.9269 181.628 56.9269 177.338C56.9269 169.833 52.5462 161.877 46.0701 157.772C39.594 153.667 35.2239 156.523 35.2239 164.248C35.3087 168.347 36.3372 172.356 38.2135 175.9C40.0898 179.445 42.7528 182.41 45.9543 184.519C47.6926 185.695 49.6665 186.386 51.7038 186.531L52.641 190.521C50.2688 190.311 47.9764 189.482 45.9543 188.104C37.53 182.75 31.9595 171.973 31.9595 162.213C31.9595 152.453 37.5827 148.914 46.0701 154.303C54.2732 159.495 59.8648 169.891 59.8648 179.165ZM49.4609 173.603C49.4813 172.137 49.1555 170.69 48.5151 169.403C47.8748 168.116 46.9417 167.033 45.8068 166.26C43.7008 164.907 42.1949 165.855 42.1949 169.001C42.1679 170.469 42.486 171.921 43.1187 173.215C43.7514 174.51 44.6772 175.603 45.8068 176.39C47.9129 177.697 49.4609 176.853 49.4609 173.603Z" fill="#555C79"/>
<g opacity="0.9">
<path d="M59.8648 179.165C59.8648 185.791 57.4744 188.046 53.8941 185.768C52.9065 185.151 52.0428 184.32 51.3551 183.327C50.6674 182.333 50.1699 181.197 49.8926 179.986C48.8396 181.409 47.2074 181.501 44.9118 180.044C41.1419 177.65 38.1724 171.95 38.1724 166.41C38.1724 160.871 41.1103 158.963 44.9118 161.369C46.8408 162.617 48.3989 164.453 49.3977 166.653V164.468L53.3676 166.989V178.969C53.3085 179.599 53.4078 180.235 53.6547 180.808C53.9016 181.381 54.2867 181.869 54.7681 182.218C56.1055 183.074 56.9269 181.628 56.9269 177.338C56.9269 169.833 52.5462 161.877 46.0701 157.772C39.594 153.667 35.2239 156.523 35.2239 164.248C35.3087 168.347 36.3372 172.356 38.2135 175.9C40.0898 179.445 42.7528 182.41 45.9543 184.519C47.6926 185.695 49.6665 186.386 51.7038 186.531L52.641 190.521C50.2688 190.311 47.9764 189.482 45.9543 188.104C37.53 182.75 31.9595 171.973 31.9595 162.213C31.9595 152.453 37.5827 148.914 46.0701 154.303C54.2732 159.495 59.8648 169.891 59.8648 179.165ZM49.4609 173.603C49.4813 172.137 49.1555 170.69 48.5151 169.403C47.8748 168.116 46.9417 167.033 45.8068 166.26C43.7008 164.907 42.1949 165.855 42.1949 169.001C42.1679 170.469 42.486 171.921 43.1187 173.215C43.7514 174.51 44.6772 175.603 45.8068 176.39C47.9129 177.697 49.4609 176.853 49.4609 173.603Z" fill="white"/>
</g>
<path d="M76.029 238.43L34.1499 211.833C33.6687 211.464 33.1104 211.235 32.5268 211.166C31.9433 211.097 31.3534 211.191 30.8118 211.44C30.6973 211.498 30.588 211.568 30.4854 211.648L21.3766 217.511H21.4398C20.292 218.228 19.5654 219.893 19.5654 222.264V273.399C19.5654 277.735 21.9558 282.754 24.9148 284.627L66.7939 311.224C67.3242 311.649 67.957 311.892 68.6128 311.923C69.2686 311.954 69.9181 311.771 70.4795 311.397L70.4058 311.467L79.4514 305.627C80.6308 304.945 81.3784 303.314 81.3784 300.828V249.647C81.3784 245.322 79.0302 240.303 76.029 238.43Z" fill="#555C79"/>
<path d="M79.8829 243.275C79.0385 241.294 77.7028 239.615 76.0288 238.43L34.1497 211.833C33.6685 211.464 33.1102 211.235 32.5266 211.166C31.9431 211.097 31.3532 211.191 30.8116 211.44C30.6971 211.498 30.5879 211.568 30.4852 211.648L21.3765 217.511C21.9324 217.195 22.5568 217.054 23.1811 217.103C23.8054 217.152 24.4052 217.389 24.9147 217.788L66.7937 244.385C68.525 245.628 69.8955 247.39 70.7426 249.462L79.8829 243.275Z" fill="#555C79"/>
<path d="M72.143 306.737C72.143 309.05 71.4691 310.657 70.4055 311.42L79.4511 305.581C80.6305 304.898 81.3781 303.268 81.3781 300.782V249.647C81.3335 247.425 80.8217 245.244 79.8828 243.275L70.7425 249.45C71.6199 251.361 72.0983 253.463 72.143 255.602V306.737Z" fill="#555C79"/>
<path opacity="0.3" d="M79.8829 243.275C79.0385 241.294 77.7028 239.615 76.0288 238.43L34.1497 211.833C33.6685 211.464 33.1102 211.235 32.5266 211.166C31.9431 211.097 31.3532 211.191 30.8116 211.44C30.6971 211.498 30.5879 211.568 30.4852 211.648L21.3765 217.511C21.9324 217.195 22.5568 217.054 23.1811 217.103C23.8054 217.152 24.4052 217.389 24.9147 217.788L66.7937 244.385C68.525 245.628 69.8955 247.39 70.7426 249.462L79.8829 243.275Z" fill="black"/>
<path opacity="0.6" d="M72.143 306.737C72.143 309.05 71.4691 310.657 70.4055 311.42L79.4511 305.581C80.6305 304.898 81.3781 303.268 81.3781 300.782V249.647C81.3335 247.425 80.8217 245.244 79.8828 243.275L70.7425 249.45C71.6199 251.361 72.0983 253.463 72.143 255.602V306.737Z" fill="black"/>
<path d="M41.1735 261.291L31.075 243.275V267.686L41.1735 261.291Z" fill="#555C79"/>
<path d="M50.5562 266.483L60.6337 285.645V261.268L50.5562 266.483Z" fill="#555C79"/>
<path d="M32.6018 242.454L42.9742 260.956C43.0181 260.997 43.057 261.043 43.09 261.095C43.0991 261.141 43.0991 261.188 43.09 261.234L46.1754 266.738L48.7869 265.385C48.8276 265.337 48.8736 265.294 48.9238 265.258C49.0267 265.192 49.1419 265.152 49.2608 265.142L59.7911 259.719L32.6018 242.454Z" fill="#555C79"/>
<path d="M49.0293 267.27L46.2071 268.727C46.0984 268.783 45.9796 268.81 45.8596 268.808C45.7143 268.81 45.571 268.77 45.4437 268.693C45.3163 268.616 45.2093 268.504 45.133 268.369L42.0476 262.864L31.9175 269.294L59.1805 286.57L49.0293 267.27Z" fill="#555C79"/>
<g opacity="0.9">
<path d="M41.1735 261.291L31.075 243.275V267.686L41.1735 261.291Z" fill="white"/>
<path d="M50.5562 266.483L60.6337 285.645V261.268L50.5562 266.483Z" fill="white"/>
<path d="M32.6018 242.454L42.9742 260.956C43.0181 260.997 43.057 261.043 43.09 261.095C43.0991 261.141 43.0991 261.188 43.09 261.234L46.1754 266.738L48.7869 265.385C48.8276 265.337 48.8736 265.294 48.9238 265.258C49.0267 265.192 49.1419 265.152 49.2608 265.142L59.7911 259.719L32.6018 242.454Z" fill="white"/>
<path d="M49.0293 267.27L46.2071 268.727C46.0984 268.783 45.9796 268.81 45.8596 268.808C45.7143 268.81 45.571 268.77 45.4437 268.693C45.3163 268.616 45.2093 268.504 45.133 268.369L42.0476 262.864L31.9175 269.294L59.1805 286.57L49.0293 267.27Z" fill="white"/>
</g>
<path d="M76.029 56.2769L34.1499 29.6802C33.6687 29.3113 33.1104 29.0819 32.5268 29.0132C31.9433 28.9444 31.3534 29.0386 30.8118 29.287C30.6973 29.3451 30.588 29.4147 30.4854 29.4952L21.3766 35.358H21.4398C20.292 36.0634 19.5654 37.7401 19.5654 40.1107V91.2458C19.5654 95.5707 21.9558 100.601 24.9148 102.474L66.7939 129.071C67.3242 129.496 67.957 129.739 68.6128 129.77C69.2686 129.801 69.9181 129.618 70.4795 129.244L70.4058 129.302L79.4514 123.52C80.6308 122.838 81.3784 121.208 81.3784 118.721V67.4591C81.3784 63.1342 79.0302 58.104 76.029 56.2769Z" fill="#555C79"/>
<path d="M79.8829 61.0874C79.0387 59.1034 77.7031 57.4203 76.0288 56.2306L34.1497 29.6802C33.6685 29.3113 33.1102 29.0819 32.5266 29.0132C31.9431 28.9444 31.3532 29.0386 30.8116 29.287C30.6971 29.3451 30.5879 29.4147 30.4852 29.4952L21.3765 35.358C21.9324 35.0423 22.5568 34.9012 23.1811 34.9502C23.8054 34.9991 24.4052 35.2363 24.9147 35.6355L66.7937 62.2323C68.525 63.4749 69.8955 65.2367 70.7426 67.3088L79.8829 61.0874Z" fill="#555C79"/>
<path d="M72.143 124.503C72.143 126.816 71.4691 128.423 70.4055 129.129L79.4511 123.347C80.6305 122.665 81.3781 121.034 81.3781 118.548V67.4592C81.3335 65.2371 80.8217 63.0565 79.8828 61.0875L70.7425 67.2626C71.6199 69.1734 72.0983 71.2751 72.143 73.4145V124.503Z" fill="#555C79"/>
<path opacity="0.3" d="M79.8829 61.0874C79.0387 59.1034 77.7031 57.4203 76.0288 56.2306L34.1497 29.6802C33.6685 29.3113 33.1102 29.0819 32.5266 29.0132C31.9431 28.9444 31.3532 29.0386 30.8116 29.287C30.6971 29.3451 30.5879 29.4147 30.4852 29.4952L21.3765 35.358C21.9324 35.0423 22.5568 34.9012 23.1811 34.9502C23.8054 34.9991 24.4052 35.2363 24.9147 35.6355L66.7937 62.2323C68.525 63.4749 69.8955 65.2367 70.7426 67.3088L79.8829 61.0874Z" fill="black"/>
<path opacity="0.6" d="M72.143 124.503C72.143 126.816 71.4691 128.423 70.4055 129.129L79.4511 123.347C80.6305 122.665 81.3781 121.034 81.3781 118.548V67.4592C81.3335 65.2371 80.8217 63.0565 79.8828 61.0875L70.7425 67.2626C71.6199 69.1734 72.0983 71.2751 72.143 73.4145V124.503Z" fill="black"/>
<path d="M58.4433 102.532C56.8321 99.6179 55.2105 96.7501 53.5993 93.8129C53.3438 93.2565 52.9865 92.764 52.5499 92.3661C52.1132 91.9682 51.6066 91.6734 51.0615 91.5001C50.2823 91.3267 49.503 91.1301 48.7027 90.8757C48.4177 90.7452 48.178 90.5184 48.0182 90.2281C45.3819 85.2732 43.2859 79.9946 41.7738 74.5014C41.7416 74.3839 41.7325 74.2603 41.747 74.1387C41.7615 74.0171 41.7993 73.9003 41.858 73.796C42.3529 73.2525 42.911 72.7552 43.4165 72.2695C43.9219 71.7839 44.1852 70.6622 43.8166 69.2051C43.0374 66.1176 42.2898 63.0301 41.5105 59.9541C41.3597 59.0801 41.002 58.2651 40.4733 57.5912C39.9446 56.9172 39.2636 56.4081 38.4988 56.1149C36.8007 55.5965 34.9979 55.6692 33.339 56.3231C32.6966 56.589 32.3597 57.225 32.3491 58.3236C32.6229 60.4398 32.8019 62.5328 33.1705 64.6837C35.768 80.1946 42.016 94.4566 51.9145 107.47C52.1729 107.901 52.5201 108.26 52.928 108.517C53.3359 108.774 53.7931 108.922 54.2627 108.95C55.9015 108.907 57.4759 108.241 58.7171 107.065C59.6543 106.14 59.5595 104.498 58.4433 102.532Z" fill="#555C79"/>
<path d="M58.3166 86.7707C58.0963 83.4445 57.2614 80.2024 55.863 77.2421C54.8189 74.9295 53.4901 72.7855 51.9141 70.8705C51.5034 70.3616 51.1559 70.1998 50.9453 70.5814C50.7347 70.963 50.9453 71.5065 51.3455 72.0037L51.7562 72.5241C54.6667 76.2135 56.501 80.778 57.0213 85.6259C57.0162 85.9794 57.048 86.3325 57.1161 86.6782C57.2484 87.0758 57.4607 87.4356 57.7374 87.7305C57.9585 87.9039 58.2113 87.7305 58.3903 87.7305C58.3271 87.2563 58.3376 87.0135 58.3166 86.7707Z" fill="#555C79"/>
<path d="M48.7766 77.2768C50.099 78.874 50.9025 80.9071 51.0617 83.0587C51.131 83.3858 51.2409 83.7009 51.3881 83.9953C52.0305 84.5735 52.3464 84.3769 52.3464 83.6484C52.1212 80.8897 51.0823 78.2872 49.3874 76.236C48.9872 75.785 48.6608 75.6463 48.4712 76.0279C48.403 76.2458 48.3957 76.481 48.4501 76.7036C48.5045 76.9261 48.6182 77.1257 48.7766 77.2768Z" fill="#555C79"/>
<g opacity="0.9">
<path d="M58.4433 102.532C56.8321 99.6179 55.2105 96.7501 53.5993 93.8129C53.3438 93.2565 52.9865 92.764 52.5499 92.3661C52.1132 91.9682 51.6066 91.6734 51.0615 91.5001C50.2823 91.3267 49.503 91.1301 48.7027 90.8757C48.4177 90.7452 48.178 90.5184 48.0182 90.2281C45.3819 85.2732 43.2859 79.9946 41.7738 74.5014C41.7416 74.3839 41.7325 74.2603 41.747 74.1387C41.7615 74.0171 41.7993 73.9003 41.858 73.796C42.3529 73.2525 42.911 72.7552 43.4165 72.2695C43.9219 71.7839 44.1852 70.6622 43.8166 69.2051C43.0374 66.1176 42.2898 63.0301 41.5105 59.9541C41.3597 59.0801 41.002 58.2651 40.4733 57.5912C39.9446 56.9172 39.2636 56.4081 38.4988 56.1149C36.8007 55.5965 34.9979 55.6692 33.339 56.3231C32.6966 56.589 32.3597 57.225 32.3491 58.3236C32.6229 60.4398 32.8019 62.5328 33.1705 64.6837C35.768 80.1946 42.016 94.4566 51.9145 107.47C52.1729 107.901 52.5201 108.26 52.928 108.517C53.3359 108.774 53.7931 108.922 54.2627 108.95C55.9015 108.907 57.4759 108.241 58.7171 107.065C59.6543 106.14 59.5595 104.498 58.4433 102.532Z" fill="white"/>
<path d="M58.3166 86.7707C58.0963 83.4445 57.2614 80.2024 55.863 77.2421C54.8189 74.9295 53.4901 72.7855 51.9141 70.8705C51.5034 70.3616 51.1559 70.1998 50.9453 70.5814C50.7347 70.963 50.9453 71.5065 51.3455 72.0037L51.7562 72.5241C54.6667 76.2135 56.501 80.778 57.0213 85.6259C57.0162 85.9794 57.048 86.3325 57.1161 86.6782C57.2484 87.0758 57.4607 87.4356 57.7374 87.7305C57.9585 87.9039 58.2113 87.7305 58.3903 87.7305C58.3271 87.2563 58.3376 87.0135 58.3166 86.7707Z" fill="white"/>
<path d="M48.7766 77.2768C50.099 78.874 50.9025 80.9071 51.0617 83.0587C51.131 83.3858 51.2409 83.7009 51.3881 83.9953C52.0305 84.5735 52.3464 84.3769 52.3464 83.6484C52.1212 80.8897 51.0823 78.2872 49.3874 76.236C48.9872 75.785 48.6608 75.6463 48.4712 76.0279C48.403 76.2458 48.3957 76.481 48.4501 76.7036C48.5045 76.9261 48.6182 77.1257 48.7766 77.2768Z" fill="white"/>
</g>
<path d="M290.9 25.6096L300.767 31.7731V27.934C300.767 27.668 300.767 27.3905 300.767 27.1245C300.767 26.8585 300.767 26.6041 300.767 26.3497V26.2109C301.125 21.1344 304.632 19.1802 308.907 21.8977C310.842 23.205 312.501 24.9516 313.772 27.0204C314.73 20.0821 319.858 17.6306 326.061 21.5507C332.948 25.9219 338.529 36.5837 338.529 45.2796V53.4899C338.519 54.1467 338.666 54.7947 338.957 55.3691C339.247 55.9435 339.669 56.424 340.182 56.7625L345.995 60.4976C347.249 61.3144 348.289 62.4748 349.013 63.8653C349.736 65.2558 350.119 66.8288 350.123 68.4304C350.123 69.0948 349.963 69.7475 349.661 70.3229C349.358 70.8982 348.923 71.3758 348.399 71.7076C347.874 72.0394 347.28 72.2137 346.675 72.2129C346.07 72.212 345.476 72.0361 344.952 71.7029L291.047 37.4856C289.617 36.5736 288.43 35.2666 287.602 33.6944C286.774 32.1223 286.336 30.3397 286.33 28.5237C286.329 27.9359 286.47 27.3583 286.736 26.8487C287.003 26.3392 287.387 25.9156 287.85 25.6204C288.313 25.3253 288.839 25.1689 289.374 25.167C289.909 25.1651 290.435 25.3178 290.9 25.6096Z" fill="#E6E6E6"/>
<path d="M366.118 24.0025L373.289 28.5239V25.7023C373.289 25.5057 373.289 25.3092 373.289 25.1126C373.289 24.916 373.289 24.731 373.289 24.546V24.4766C373.552 20.7877 376.101 19.3654 379.207 21.3428C380.614 22.2893 381.82 23.5549 382.745 25.0548C383.451 20.0361 387.179 18.2206 391.686 21.0768C396.698 24.2569 400.752 31.9815 400.752 38.33V44.3085C400.756 44.7771 400.871 45.2367 401.085 45.6421C401.299 46.0475 401.605 46.3849 401.974 46.6212L406.186 49.3387C407.102 49.9306 407.862 50.7759 408.388 51.7903C408.915 52.8048 409.19 53.953 409.187 55.1206C409.186 55.5989 409.072 56.0687 408.856 56.4837C408.64 56.8987 408.328 57.2447 407.953 57.4875C407.578 57.7303 407.152 57.8615 406.716 57.8682C406.281 57.875 405.851 57.757 405.47 57.5259L366.223 32.6406C365.183 31.9799 364.32 31.0307 363.719 29.8881C363.119 28.7455 362.802 27.4495 362.801 26.1302C362.8 25.7032 362.902 25.2834 363.095 24.9129C363.288 24.5423 363.566 24.234 363.902 24.0186C364.238 23.8032 364.619 23.6884 365.008 23.6855C365.397 23.6827 365.78 23.792 366.118 24.0025Z" fill="#E6E6E6"/>
</svg>
