<svg width="29" height="29" viewBox="0 0 29 29" fill="none" xmlns="http://www.w3.org/2000/svg">
<path d="M21.3659 7.4633H18.9919C18.9919 4.84005 16.8672 2.71533 14.244 2.71533C11.6207 2.71533 9.49601 4.84005 9.49601 7.4633H7.12203C5.81634 7.4633 4.74805 8.53159 4.74805 9.83728V24.0812C4.74805 25.3869 5.81634 26.4552 7.12203 26.4552H21.3659C22.6716 26.4552 23.7399 25.3869 23.7399 24.0812V9.83728C23.7399 8.53159 22.6716 7.4633 21.3659 7.4633ZM14.244 5.08932C15.5497 5.08932 16.618 6.15761 16.618 7.4633H11.87C11.87 6.15761 12.9383 5.08932 14.244 5.08932ZM21.3659 24.0812H7.12203V9.83728H9.49601V12.2113C9.49601 12.8641 10.0302 13.3983 10.683 13.3983C11.3359 13.3983 11.87 12.8641 11.87 12.2113V9.83728H16.618V12.2113C16.618 12.8641 17.1521 13.3983 17.805 13.3983C18.4578 13.3983 18.9919 12.8641 18.9919 12.2113V9.83728H21.3659V24.0812Z" fill="#827F7F"/>
</svg>
