<svg width="29" height="29" viewBox="0 0 29 29" fill="none" xmlns="http://www.w3.org/2000/svg">
<path d="M14.244 18.9106C13.1421 18.9106 12.0854 18.4729 11.3063 17.6938C10.5272 16.9147 10.0895 15.858 10.0895 14.7562C10.0895 13.6543 10.5272 12.5976 11.3063 11.8185C12.0854 11.0394 13.1421 10.6017 14.244 10.6017C15.3458 10.6017 16.4025 11.0394 17.1816 11.8185C17.9607 12.5976 18.3984 13.6543 18.3984 14.7562C18.3984 15.858 17.9607 16.9147 17.1816 17.6938C16.4025 18.4729 15.3458 18.9106 14.244 18.9106ZM23.0633 15.9075C23.1108 15.5277 23.1464 15.1479 23.1464 14.7562C23.1464 14.3644 23.1108 13.9727 23.0633 13.5692L25.5679 11.6344C25.7934 11.4563 25.8527 11.1358 25.7103 10.8747L23.3363 6.7677C23.1939 6.50656 22.8734 6.39973 22.6122 6.50656L19.6566 7.69355C19.0394 7.23062 18.3984 6.82705 17.6506 6.5303L17.2114 3.38477C17.1873 3.24496 17.1145 3.1182 17.0059 3.02695C16.8972 2.9357 16.7598 2.88585 16.6179 2.88623H11.87C11.5732 2.88623 11.324 3.09989 11.2765 3.38477L10.8373 6.5303C10.0895 6.82705 9.4485 7.23062 8.83127 7.69355L5.87566 6.50656C5.61452 6.39973 5.29403 6.50656 5.15159 6.7677L2.77761 10.8747C2.6233 11.1358 2.69452 11.4563 2.92005 11.6344L5.4246 13.5692C5.37712 13.9727 5.34151 14.3644 5.34151 14.7562C5.34151 15.1479 5.37712 15.5277 5.4246 15.9075L2.92005 17.8779C2.69452 18.056 2.6233 18.3765 2.77761 18.6376L5.15159 22.7446C5.29403 23.0057 5.61452 23.1007 5.87566 23.0057L8.83127 21.8069C9.4485 22.2817 10.0895 22.6853 10.8373 22.982L11.2765 26.1275C11.324 26.4124 11.5732 26.6261 11.87 26.6261H16.6179C16.9147 26.6261 17.164 26.4124 17.2114 26.1275L17.6506 22.982C18.3984 22.6734 19.0394 22.2817 19.6566 21.8069L22.6122 23.0057C22.8734 23.1007 23.1939 23.0057 23.3363 22.7446L25.7103 18.6376C25.8527 18.3765 25.7934 18.056 25.5679 17.8779L23.0633 15.9075Z" fill="#827F7F"/>
</svg>
