<svg width="29" height="29" viewBox="0 0 29 29" fill="none" xmlns="http://www.w3.org/2000/svg">
<path d="M14.244 16.7886C14.5803 16.7886 14.8624 16.6746 15.0903 16.4467C15.3174 16.2196 15.431 15.9379 15.431 15.6016V13.2276H17.805C18.1413 13.2276 18.4234 13.1137 18.6513 12.8858C18.8784 12.6586 18.9919 12.3769 18.9919 12.0406C18.9919 11.7043 18.8784 11.4222 18.6513 11.1943C18.4234 10.9672 18.1413 10.8536 17.805 10.8536H15.431V8.47964C15.431 8.14332 15.3174 7.86121 15.0903 7.63331C14.8624 7.4062 14.5803 7.29265 14.244 7.29265C13.9077 7.29265 13.626 7.4062 13.3988 7.63331C13.1709 7.86121 13.057 8.14332 13.057 8.47964V10.8536H10.683C10.3467 10.8536 10.065 10.9672 9.83787 11.1943C9.60997 11.4222 9.49601 11.7043 9.49601 12.0406C9.49601 12.3769 9.60997 12.6586 9.83787 12.8858C10.065 13.1137 10.3467 13.2276 10.683 13.2276H13.057V15.6016C13.057 15.9379 13.1709 16.2196 13.3988 16.4467C13.626 16.6746 13.9077 16.7886 14.244 16.7886ZM14.244 23.139C16.6575 20.9233 18.4479 18.9101 19.6151 17.0996C20.7823 15.2898 21.3659 13.6826 21.3659 12.278C21.3659 10.1216 20.6783 8.35579 19.3029 6.98047C17.9284 5.60593 16.2421 4.91866 14.244 4.91866C12.2459 4.91866 10.5592 5.60593 9.18384 6.98047C7.8093 8.35579 7.12203 10.1216 7.12203 12.278C7.12203 13.6826 7.70563 15.2898 8.87284 17.0996C10.0401 18.9101 11.8304 20.9233 14.244 23.139ZM14.244 25.8394C14.0857 25.8394 13.9275 25.8097 13.7692 25.7504C13.6109 25.691 13.4724 25.6119 13.3537 25.513C10.4654 22.9609 8.30902 20.5921 6.88463 18.4065C5.46024 16.22 4.74805 14.1772 4.74805 12.278C4.74805 9.31053 5.70278 6.94644 7.61226 5.18573C9.52094 3.42503 11.7315 2.54468 14.244 2.54468C16.7564 2.54468 18.967 3.42503 20.8757 5.18573C22.7852 6.94644 23.7399 9.31053 23.7399 12.278C23.7399 14.1772 23.0277 16.22 21.6033 18.4065C20.1789 20.5921 18.0226 22.9609 15.1342 25.513C15.0155 25.6119 14.877 25.691 14.7188 25.7504C14.5605 25.8097 14.4022 25.8394 14.244 25.8394Z" fill="#827F7F"/>
</svg>
