<svg width="29" height="29" viewBox="0 0 29 29" fill="none" xmlns="http://www.w3.org/2000/svg">
<path fill-rule="evenodd" clip-rule="evenodd" d="M14.2439 24.9269C20.1439 24.9269 24.9269 20.1439 24.9269 14.2439C24.9269 8.344 20.1439 3.56102 14.2439 3.56102C8.344 3.56102 3.56102 8.344 3.56102 14.2439C3.56102 20.1439 8.344 24.9269 14.2439 24.9269ZM14.2439 26.1139C20.7997 26.1139 26.1139 20.7997 26.1139 14.2439C26.1139 7.68819 20.7997 2.37402 14.2439 2.37402C7.68819 2.37402 2.37402 7.68819 2.37402 14.2439C2.37402 20.7997 7.68819 26.1139 14.2439 26.1139Z" fill="#827F7F"/>
<path d="M7.12207 21.1462C7.12207 20.5331 7.58025 20.015 8.19036 19.9473C12.7692 19.4405 15.7396 19.4862 20.3084 19.9586C20.5365 19.9826 20.7527 20.0725 20.9306 20.2173C21.1085 20.3621 21.2404 20.5556 21.3102 20.7742C21.3799 20.9927 21.3845 21.2268 21.3234 21.4479C21.2622 21.669 21.1381 21.8676 20.966 22.0192C15.574 26.7191 12.4926 26.6544 7.50191 22.024C7.25857 21.7985 7.12207 21.4774 7.12207 21.1462Z" fill="#827F7F"/>
<path fill-rule="evenodd" clip-rule="evenodd" d="M20.2472 20.5486C15.7147 20.0797 12.787 20.0358 8.25505 20.5373C8.10587 20.5547 7.96834 20.6265 7.8688 20.739C7.76926 20.8514 7.7147 20.9967 7.71556 21.1468C7.71556 21.3166 7.78619 21.4774 7.90548 21.589C10.3792 23.8835 12.2534 24.9203 14.0856 24.9268C15.9242 24.9333 17.8994 23.9048 20.576 21.5724C20.6611 21.4967 20.7223 21.3979 20.7522 21.2881C20.7822 21.1783 20.7796 21.0621 20.7448 20.9537C20.7099 20.8454 20.6444 20.7494 20.556 20.6776C20.4677 20.6058 20.3604 20.5606 20.2472 20.5486ZM8.12507 19.3575C12.752 18.8453 15.7657 18.8916 20.3701 19.3681C20.7133 19.404 21.0386 19.5391 21.3062 19.757C21.5738 19.9748 21.7721 20.266 21.8768 20.5948C21.9815 20.9236 21.988 21.2759 21.8956 21.6083C21.8032 21.9408 21.6158 22.2391 21.3565 22.4668C18.6412 24.8336 16.38 26.1227 14.082 26.1138C11.7774 26.1055 9.61593 24.7945 7.09892 22.4591C6.9187 22.2912 6.77504 22.088 6.67691 21.8621C6.57877 21.6362 6.52828 21.3925 6.52857 21.1462C6.5277 20.7038 6.69012 20.2765 6.98471 19.9463C7.2793 19.6161 7.68534 19.4068 8.12507 19.3575Z" fill="#827F7F"/>
<path d="M18.9918 11.87C18.9918 13.1293 18.4916 14.3369 17.6011 15.2274C16.7107 16.1178 15.5031 16.618 14.2438 16.618C12.9846 16.618 11.7769 16.1178 10.8865 15.2274C9.99608 14.3369 9.49585 13.1293 9.49585 11.87C9.49585 10.6108 9.99608 9.40313 10.8865 8.51272C11.7769 7.6223 12.9846 7.12207 14.2438 7.12207C15.5031 7.12207 16.7107 7.6223 17.6011 8.51272C18.4916 9.40313 18.9918 10.6108 18.9918 11.87Z" fill="#827F7F"/>
<path fill-rule="evenodd" clip-rule="evenodd" d="M14.2438 15.431C15.1882 15.431 16.094 15.0558 16.7618 14.388C17.4296 13.7202 17.8048 12.8145 17.8048 11.87C17.8048 10.9256 17.4296 10.0199 16.7618 9.35205C16.094 8.68424 15.1882 8.30906 14.2438 8.30906C13.2994 8.30906 12.3936 8.68424 11.7258 9.35205C11.058 10.0199 10.6828 10.9256 10.6828 11.87C10.6828 12.8145 11.058 13.7202 11.7258 14.388C12.3936 15.0558 13.2994 15.431 14.2438 15.431ZM14.2438 16.618C15.5031 16.618 16.7107 16.1178 17.6011 15.2274C18.4916 14.3369 18.9918 13.1293 18.9918 11.87C18.9918 10.6108 18.4916 9.40313 17.6011 8.51272C16.7107 7.6223 15.5031 7.12207 14.2438 7.12207C12.9846 7.12207 11.7769 7.6223 10.8865 8.51272C9.99608 9.40313 9.49585 10.6108 9.49585 11.87C9.49585 13.1293 9.99608 14.3369 10.8865 15.2274C11.7769 16.1178 12.9846 16.618 14.2438 16.618Z" fill="#827F7F"/>
</svg>
